<?xml version="1.0" encoding="UTF-8"?>
<svg xmlns="http://www.w3.org/2000/svg" xmlns:xlink="http://www.w3.org/1999/xlink" width="504" height="504" viewBox="0 0 504 504">
<path fill-rule="evenodd" fill="rgb(14.901961%, 26.666667%, 18.039216%)" fill-opacity="1" d="M 245.699219 171.664062 L 241.960938 174.449219 L 238.015625 176.867188 L 233.859375 178.925781 L 229.707031 180.992188 L 225.875 183.613281 L 221.804688 185.816406 L 217.664062 187.898438 L 213.820312 190.496094 L 209.960938 193.066406 L 206.046875 195.546875 L 205.152344 198.886719 L 204.09375 201.421875 L 199.945312 203.496094 L 195.929688 205.789062 L 191.910156 208.085938 L 187.992188 210.558594 L 186.859375 214.792969 L 186.324219 216.925781 L 182.242188 219.109375 L 178.335938 221.601562 L 177.242188 225.6875 L 176.5625 227.785156 L 172.417969 229.863281 L 171.167969 234.539062 L 170.695312 236.136719 L 166.796875 238.640625 L 165.605469 243.09375 L 165.007812 244.796875 L 161.039062 247.179688 L 159.804688 251.789062 L 159.601562 253.941406 L 158.550781 257.855469 L 157.875 260.207031 L 156.800781 264.210938 L 156.105469 266.40625 L 154.980469 270.605469 L 154.375 272.660156 L 153.222656 276.964844 L 152.824219 279.230469 L 151.773438 283.144531 L 153.730469 287.359375 L 153.394531 289.476562 L 152.3125 293.523438 L 151.597656 295.617188 L 150.433594 299.949219 L 149.839844 301.828125 L 148.628906 306.335938 L 148.21875 308.28125 L 147.066406 312.582031 L 146.375 314.339844 L 142.53125 316.9375 L 141.386719 321.207031 L 140.964844 323.484375 L 136.839844 325.59375 L 135.707031 329.832031 L 135.109375 331.855469 L 133.949219 336.1875 L 133.644531 338.570312 L 132.648438 342.285156 L 131.769531 344.582031 L 130.644531 348.785156 L 132.703125 352.941406 L 132.148438 354.492188 L 128.121094 356.773438 L 124.136719 359.128906 L 120.148438 361.480469 L 116.132812 363.78125 L 114.414062 363.5 L 109.933594 362.296875 L 107.980469 361.871094 L 103.675781 360.71875 L 99.761719 363.195312 L 95.769531 365.535156 L 94.699219 369.539062 L 93.921875 371.589844 L 89.894531 373.867188 L 85.9375 376.273438 L 81.992188 378.699219 L 78 381.035156 L 74.007812 383.375 L 70.042969 385.769531 L 66.054688 388.113281 L 66.933594 389.636719 L 70.910156 387.265625 L 74.824219 384.792969 L 82.785156 380.066406 L 86.667969 377.535156 L 90.566406 375.035156 L 94.617188 372.792969 L 99.320312 372.214844 L 99.664062 372.28125 L 104.183594 370.851562 L 104.480469 369.234375 L 103.027344 368.84375 L 99.320312 371.679688 L 96.167969 368.691406 L 96.617188 367.003906 L 100.597656 364.636719 L 104.417969 361.996094 L 106.699219 362.609375 L 110.609375 363.464844 L 113.25 364.171875 L 116.6875 364.738281 L 120.707031 362.445312 L 124.675781 360.0625 L 128.636719 357.667969 L 132.679688 355.414062 L 133.789062 352.3125 L 131.992188 348.007812 L 132.546875 345.929688 L 134.300781 341.328125 L 134.597656 340.222656 L 135.207031 335.460938 L 135.835938 333.113281 L 137.027344 329.066406 L 137.605469 326.917969 L 141.847656 325.011719 L 142.6875 320.457031 L 143.28125 318.238281 L 146.960938 315.355469 L 148.347656 311.84375 L 148.957031 309.558594 L 149.78125 305.671875 L 150.503906 302.976562 L 151.695312 299.222656 L 152.324219 296.875 L 153.753906 292.691406 L 154.230469 290.917969 L 154.898438 286.6875 L 153.300781 282.261719 L 153.703125 280.757812 L 154.503906 276.226562 L 155.113281 273.941406 L 156.328125 269.828125 L 156.882812 267.75 L 158.269531 263.363281 L 158.722656 261.675781 L 160.078125 256.976562 L 160.480469 255.46875 L 160.894531 251.160156 L 161.667969 248.265625 L 165.59375 245.8125 L 166.789062 242.410156 L 167.480469 239.824219 L 171.269531 237.128906 L 172.210938 233.9375 L 173.023438 230.910156 L 177.304688 229.066406 L 178.660156 224.871094 L 179.15625 223.019531 L 182.957031 220.351562 L 187.113281 218.292969 L 188.179688 214.03125 L 188.757812 211.878906 L 192.585938 209.253906 L 200.640625 204.699219 L 204.925781 202.863281 L 207.039062 197.796875 L 207.136719 197.433594 L 210.957031 194.792969 L 214.667969 191.96875 L 218.347656 189.082031 L 222.625 187.234375 L 226.757812 185.136719 L 230.414062 182.214844 L 234.707031 180.398438 L 239.011719 178.59375 L 242.898438 176.070312 L 246.363281 172.816406 L 250.371094 170.503906 L 254.398438 168.222656 L 258.789062 166.566406 L 260.386719 166.996094 L 265.179688 168.378906 L 268.699219 165.222656 L 272.6875 162.875 L 275.484375 163.625 L 278.992188 164.539062 L 283.136719 162.460938 L 287.402344 160.589844 L 291.378906 158.226562 L 295.140625 155.480469 L 299.148438 153.167969 L 303.320312 151.140625 L 307.355469 148.871094 L 310.863281 145.6875 L 314.238281 146.59375 L 317.6875 148.25 L 321.667969 145.890625 L 323.746094 146.449219 L 328.101562 147.78125 L 328.878906 143.484375 L 329.539062 141.015625 L 332.011719 141.675781 L 335.90625 142.785156 L 340.191406 140.949219 L 344.050781 138.375 L 348.347656 136.5625 L 349.558594 136.890625 L 354.328125 137.664062 L 358.21875 135.148438 L 360.6875 135.808594 L 364.582031 136.917969 L 368.429688 134.320312 L 371.222656 135.070312 L 374.9375 136.339844 L 378.945312 134.023438 L 382.863281 131.554688 L 385.394531 132.234375 L 387.777344 136.199219 L 387.070312 138.839844 L 385.304688 142.972656 L 384.925781 144.386719 L 384.320312 148.886719 L 386.347656 153.058594 L 385.789062 155.136719 L 381.726562 157.355469 L 381.191406 161.378906 L 380.402344 164.320312 L 379.496094 167.703125 L 378.710938 170.640625 L 374.628906 172.832031 L 373.824219 176.320312 L 373.023438 179.304688 L 371.910156 182.769531 L 371.203125 185.410156 L 367.304688 187.914062 L 363.226562 190.105469 L 362.09375 193.78125 L 361.433594 196.253906 L 357.332031 198.40625 L 353.476562 200.988281 L 351.886719 205.019531 L 351.433594 206.703125 L 347.394531 208.964844 L 343.746094 211.902344 L 342.671875 215.683594 L 342.011719 218.152344 L 338.046875 220.539062 L 333.972656 222.742188 L 329.699219 224.597656 L 329.28125 228.757812 L 332.652344 229.710938 L 336.984375 227.957031 L 341.078125 225.792969 L 345 223.332031 L 347.007812 223.867188 L 351.132812 224.691406 L 353.660156 225.371094 L 357.9375 227.222656 L 362.023438 225.046875 L 365.878906 222.464844 L 369.785156 219.980469 L 373.96875 217.964844 L 377.976562 215.652344 L 381.84375 213.09375 L 386.070312 211.160156 L 390.078125 208.847656 L 393.898438 206.207031 L 397.601562 203.359375 L 401.300781 200.511719 L 405.292969 198.171875 L 409.316406 195.882812 L 410.257812 192.695312 L 411.070312 189.664062 L 415.128906 187.4375 L 419.171875 185.183594 L 423.257812 183.003906 L 427.375 180.882812 L 431.433594 178.652344 L 435.519531 176.476562 L 439.5 174.117188 L 443.480469 171.753906 L 447.464844 169.394531 L 451.445312 167.039062 L 455.429688 164.683594 L 459.371094 162.25 L 463.402344 159.976562 L 462.683594 158.734375 L 458.664062 161.03125 L 454.691406 163.402344 L 446.699219 168.074219 L 442.707031 170.410156 L 438.710938 172.746094 L 434.714844 175.085938 L 430.667969 177.328125 L 426.636719 179.601562 L 422.570312 181.820312 L 418.527344 184.066406 L 414.5 186.351562 L 410.46875 188.621094 L 409.214844 193.296875 L 408.742188 194.890625 L 404.726562 197.191406 L 400.726562 199.519531 L 396.875 202.101562 L 393.019531 204.683594 L 389.105469 207.160156 L 385.097656 209.472656 L 380.976562 211.59375 L 377.039062 214.03125 L 373.03125 216.34375 L 368.9375 218.507812 L 364.980469 220.910156 L 361.046875 223.355469 L 357 225.601562 L 354.863281 224.675781 L 350.4375 223.492188 L 348.375 223.078125 L 344.210938 221.960938 L 340.246094 224.351562 L 336.195312 226.589844 L 332.023438 228.625 L 330.339844 228.148438 L 330.546875 226.066406 L 334.6875 223.980469 L 338.730469 221.722656 L 342.714844 219.375 L 343.894531 214.976562 L 344.429688 213.085938 L 348.257812 210.460938 L 352.28125 208.175781 L 353.355469 204.171875 L 354.152344 202.15625 L 358.082031 199.707031 L 362.136719 197.472656 L 363.316406 193.078125 L 363.882812 191.238281 L 367.925781 188.984375 L 371.878906 186.578125 L 373.078125 182.09375 L 373.632812 180.363281 L 374.882812 175.710938 L 375.285156 173.964844 L 379.328125 171.714844 L 380.570312 167.082031 L 381.023438 165.390625 L 382.261719 160.761719 L 382.53125 158.75 L 386.566406 156.480469 L 387.691406 152.28125 L 385.519531 148.191406 L 385.824219 145.941406 L 386.863281 142.074219 L 387.742188 140.007812 L 388.945312 135.527344 L 386.59375 131.539062 L 382.167969 130.351562 L 378.207031 132.746094 L 374.199219 135.058594 L 372.339844 134.425781 L 367.78125 133.203125 L 363.855469 135.660156 L 361.910156 135.105469 L 357.511719 133.925781 L 353.5625 136.339844 L 351.179688 135.953125 L 347.410156 134.945312 L 343.257812 137.007812 L 339.324219 139.449219 L 335.179688 141.527344 L 333.230469 140.972656 L 328.835938 139.792969 L 327.65625 144.191406 L 327.269531 146.339844 L 325.089844 145.671875 L 320.890625 144.546875 L 316.898438 146.882812 L 315.171875 146.054688 L 310.324219 144.753906 L 306.566406 147.503906 L 302.546875 149.792969 L 298.453125 151.964844 L 294.445312 154.28125 L 290.5625 156.808594 L 286.570312 159.148438 L 282.433594 161.242188 L 278.355469 163.4375 L 276.601562 162.980469 L 272.042969 161.757812 L 268.042969 164.085938 L 264.28125 166.824219 L 261.882812 166.132812 L 257.925781 165.070312 L 253.726562 167.054688 L 249.707031 169.351562 Z M 244.550781 178.929688 L 240.074219 180.433594 L 236.773438 183.976562 L 236.625 186.058594 L 239.246094 189.890625 L 242.011719 193.636719 L 243.5 195.628906 L 245.703125 196.851562 L 244.785156 197.847656 L 243.816406 203.285156 L 248.148438 203.671875 L 251.28125 204.320312 L 254.496094 205.414062 L 255.078125 202.125 L 255.011719 197.050781 L 255.003906 196.824219 L 254.738281 196.578125 L 249.902344 194.425781 L 249.160156 189.511719 L 250.121094 188.582031 L 249.746094 183.828125 L 246.980469 180.082031 Z M 213.394531 199.015625 L 211.1875 200.746094 L 209.644531 201.777344 L 210.226562 206.644531 L 214.148438 209.582031 L 217.757812 206.574219 L 221.351562 203.546875 L 220.574219 200.671875 L 219.230469 199.871094 L 213.761719 199.257812 Z M 267.160156 171.8125 L 262.632812 173.226562 L 262.703125 176.347656 L 265.394531 180.136719 L 267.519531 184.253906 L 269.554688 185.21875 L 269.042969 183.375 L 267.023438 179.195312 L 268.554688 174.230469 L 268.863281 172.792969 Z M 193.707031 220.457031 L 190.089844 223.445312 L 189.5625 223.917969 L 191.550781 225.976562 L 194.082031 226.65625 L 196.832031 225.867188 L 196.585938 225.207031 L 194.945312 220.8125 Z M 304.238281 161.984375 L 301.570312 164.597656 L 305.75 164.601562 L 307 161.460938 Z M 340.992188 151.597656 L 340.09375 153.042969 L 342.398438 154.027344 L 345.738281 150.558594 L 345.757812 149.769531 L 345.242188 149.699219 Z M 271.984375 189.425781 L 272.523438 192.054688 L 273.570312 192.167969 L 275.902344 190.101562 Z M 228.257812 212.265625 L 231.148438 211.257812 L 231.296875 210.511719 L 230.578125 210.265625 Z M 335.023438 159.769531 L 335.238281 161.1875 L 336.238281 161.875 L 341.550781 161.820312 L 340.984375 157.871094 L 339.171875 157.695312 Z M 231.148438 220.507812 L 231.308594 221.191406 L 233.550781 225.242188 L 233.964844 225.390625 L 239.828125 226.964844 L 242.328125 230.863281 L 242.507812 230.929688 L 248.433594 232.683594 L 249.285156 233.414062 L 252.734375 235.542969 L 256.054688 235.882812 L 256.25 233.515625 L 257.234375 228.671875 L 257.648438 227.363281 L 257.207031 222.273438 L 257.828125 220.445312 L 258.011719 216.464844 L 259.011719 213.234375 L 259.605469 210.199219 L 256.476562 208.847656 L 253.183594 212.394531 L 250.261719 215.59375 L 250.03125 216.195312 L 248.007812 221.949219 L 243.757812 223.839844 L 240.351562 221.316406 L 236.640625 220.769531 L 231.882812 220.859375 Z M 298.148438 257.421875 L 298.714844 254.234375 L 301.757812 255.335938 L 301.097656 258.363281 Z M 287.621094 207.253906 L 291.226562 204.238281 L 296.074219 203.382812 L 299.753906 200.496094 L 303.773438 198.207031 L 304.769531 194.8125 L 302.058594 195.230469 L 297.339844 196.316406 L 292.894531 197.871094 L 289.222656 200.769531 L 285.265625 203.171875 L 282.5 202.328125 L 279.515625 202.464844 L 274.574219 203.164062 L 273.8125 207.34375 L 278.082031 209.242188 L 281.445312 205.808594 L 284.492188 206.519531 Z M 373.398438 142.925781 L 371.273438 145.730469 L 374.496094 144.832031 L 377.820312 141.949219 Z M 393.699219 223.632812 L 393.460938 223.960938 L 392.578125 224.277344 L 389.085938 225.636719 L 384.898438 227.640625 L 380.976562 230.105469 L 377.257812 232.921875 L 373.246094 235.226562 L 369.246094 237.558594 L 365.234375 239.863281 L 360.996094 241.78125 L 356.796875 243.765625 L 353.035156 246.503906 L 349.246094 249.191406 L 345.195312 251.433594 L 345.179688 251.640625 L 346.492188 256.230469 L 347.21875 261.152344 L 346.664062 263.234375 L 342.125 264.628906 L 340.71875 264.90625 L 337.675781 261.320312 L 333.777344 258.226562 L 332.710938 257.578125 L 329.597656 255.296875 L 325.398438 254.171875 L 323.15625 253.667969 L 319.261719 252.796875 L 315.320312 252.851562 L 313.800781 252.597656 L 308.613281 252.867188 L 304.558594 255.101562 L 303.558594 254.296875 L 301.113281 250.367188 L 296.648438 247.597656 L 293.113281 244.53125 L 292.863281 244.4375 L 287.90625 241.957031 L 285.222656 240.121094 L 283.273438 239.289062 L 280.316406 235.652344 L 276.847656 232.308594 L 274.980469 231.640625 L 270.804688 233.660156 L 267.3125 236.871094 L 266.570312 238.242188 L 265.179688 242.429688 L 264.707031 244.664062 L 263.742188 249.199219 L 263.414062 250.753906 L 265.300781 251.898438 L 267.636719 253.660156 L 270.953125 257.089844 L 274.640625 258.816406 L 276.710938 259.109375 L 280.28125 262.390625 L 283.207031 264.394531 L 285.414062 259.429688 L 285.480469 259.082031 L 289.550781 256.875 L 293.398438 254.285156 L 294.164062 254.375 L 296.34375 258.460938 L 302.242188 260.347656 L 302.390625 260.316406 L 307.601562 260.367188 L 311.820312 258.421875 L 314.839844 258.472656 L 317.367188 258.777344 L 322.601562 258.582031 L 323.433594 258.855469 L 324.039062 261.070312 L 321.765625 265.160156 L 321.347656 265.667969 L 319.628906 266.394531 L 317.132812 267.621094 L 313 269.71875 L 312.148438 270.714844 L 309.9375 273.671875 L 306.21875 276.488281 L 301.277344 277.183594 L 299.589844 277.964844 L 297.070312 279.152344 L 292.914062 281.210938 L 288.613281 283.019531 L 284.953125 285.9375 L 284.882812 286.457031 L 286.636719 290.789062 L 287.050781 295.890625 L 286.515625 297.898438 L 282.359375 299.953125 L 278.128906 301.882812 L 276.019531 302.261719 L 274.507812 297.789062 L 270.976562 294.484375 L 267.574219 291.105469 L 265.195312 287.132812 L 263.832031 286.378906 L 260.476562 284.515625 L 256.757812 283.378906 L 254.832031 282.429688 L 250.441406 279.621094 L 248.925781 279.070312 L 245.171875 277.320312 L 242.226562 273.675781 L 240.34375 273.460938 L 237.164062 276.597656 L 237.128906 277.152344 L 234.507812 281.871094 L 230.003906 283.328125 L 226.003906 285.652344 L 222.484375 288.8125 L 219.074219 292.15625 L 218.570312 292.675781 L 219.402344 297.542969 L 221.773438 296.835938 L 224.089844 294.832031 L 223.875 291.21875 L 228.300781 292.402344 L 229.699219 292.054688 L 232.980469 295.042969 L 237.628906 296.53125 L 241.160156 293.386719 L 245.96875 292.464844 L 246.3125 292.691406 L 251.015625 291.949219 L 255.464844 290.398438 L 258.6875 290.890625 L 261.480469 294.621094 L 261.40625 300.007812 L 261.382812 300.648438 L 257.609375 303.367188 L 253.8125 306.046875 L 250.144531 308.953125 L 246.757812 308.46875 L 244.320312 308.117188 L 242.007812 311.210938 L 245.84375 314.339844 L 247.1875 318.90625 L 246.558594 321.253906 L 242.308594 323.148438 L 237.761719 324.53125 L 237.253906 324.644531 L 234.902344 320.65625 L 229.609375 319.664062 L 225.644531 322.054688 L 221.554688 324.230469 L 217.253906 326.035156 L 215.152344 326.714844 L 212.808594 327.59375 L 208.722656 329.765625 L 204.933594 332.460938 L 200.921875 334.769531 L 199.789062 335.585938 L 197.234375 337.636719 L 195.582031 338.015625 L 192.597656 338.867188 L 188.503906 341.03125 L 184.195312 342.824219 L 180.070312 344.9375 L 176.039062 347.207031 L 172.859375 350.957031 L 172.75 351.195312 L 171.132812 357.226562 L 171.125 357.476562 L 168.019531 361.085938 L 164.230469 363.78125 L 163.335938 367.320312 L 162.574219 370.164062 L 161.441406 373.757812 L 160.761719 376.285156 L 159.78125 380.058594 L 159.089844 382.644531 L 158.121094 386.359375 L 157.414062 389 L 156.460938 392.664062 L 155.742188 395.355469 L 154.769531 398.984375 L 157.050781 403.011719 L 156.339844 405.652344 L 155.515625 409.242188 L 154.738281 412.136719 L 153.695312 415.636719 L 156.074219 419.609375 L 158.355469 423.636719 L 157.621094 426.378906 L 156.449219 430.078125 L 158.839844 434.042969 L 158.160156 436.574219 L 155.941406 441.0625 L 155.773438 441.691406 L 154.503906 441.890625 L 152.023438 437.976562 L 150.003906 433.800781 L 145.324219 432.855469 L 143.453125 432.238281 L 140.511719 428.59375 L 136.871094 425.351562 L 134.105469 422.671875 L 133.601562 421.894531 L 133.410156 421.472656 L 136.027344 416.753906 L 135.679688 415.351562 L 136.226562 409.691406 L 136.71875 408.695312 L 137.320312 403.714844 L 134.113281 404.175781 L 128.691406 403.351562 L 126.65625 399.183594 L 127.542969 393.328125 L 124.605469 389.679688 L 124.476562 387.484375 L 128.035156 384.394531 L 128.835938 381.894531 L 129.941406 378.4375 L 133.085938 374.628906 L 133.769531 373.699219 L 133.988281 368.230469 L 129.972656 369.238281 L 125.765625 371.207031 L 121.890625 373.75 L 119.316406 376.699219 L 118.792969 377.644531 L 116.113281 378.550781 L 113.449219 374.742188 L 110.261719 371.242188 L 109.441406 370.703125 L 108.976562 371.980469 L 110.257812 376.585938 L 109.621094 380.269531 L 109.28125 382.496094 L 107.710938 386.21875 L 104.898438 390.371094 L 104.890625 390.589844 L 101.023438 393.140625 L 96.964844 395.371094 L 93.097656 397.925781 L 89.128906 400.316406 L 84.890625 402.226562 L 80.882812 404.539062 L 78.304688 409.332031 L 79.054688 410.632812 L 80.132812 412.496094 L 80.917969 409.558594 L 81.972656 406.429688 L 85.980469 404.117188 L 90.105469 402.003906 L 94.09375 399.652344 L 98.03125 397.21875 L 102.0625 394.945312 L 105.75 395.222656 L 108.59375 398.925781 L 110.90625 402.933594 L 112.222656 403.285156 L 116.535156 401.5 L 120.898438 402.507812 L 123.550781 406.320312 L 126.660156 409.871094 L 128.058594 414.40625 L 129.523438 418.90625 L 131.617188 423.039062 L 130.980469 426.519531 L 130.273438 429.160156 L 132.65625 433.128906 L 136.535156 436.234375 L 136.730469 436.476562 L 141.886719 436.15625 L 144.375 437.050781 L 147 440.878906 L 148.910156 445.121094 L 152.148438 444.675781 L 156.8125 443.496094 L 157.746094 440.019531 L 158.855469 437.777344 L 160.039062 433.351562 L 157.6875 429.363281 L 158.273438 427.515625 L 159.488281 422.980469 L 157.191406 418.964844 L 154.84375 414.972656 L 155.367188 413.222656 L 156.601562 408.617188 L 157.015625 406.820312 L 158.214844 402.339844 L 155.917969 398.320312 L 156.40625 396.507812 L 157.613281 392 L 158.089844 390.167969 L 159.289062 385.6875 L 159.773438 383.828125 L 160.964844 379.375 L 161.457031 377.488281 L 162.644531 373.0625 L 163.207031 371.265625 L 164.4375 366.683594 L 164.882812 364.914062 L 168.785156 362.410156 L 172.378906 359.382812 L 175.984375 356.367188 L 179.578125 353.339844 L 183.585938 351.027344 L 187.679688 348.855469 L 191.898438 346.910156 L 195.90625 344.59375 L 199.976562 342.386719 L 203.855469 339.855469 L 207.929688 337.652344 L 211.875 335.226562 L 215.945312 333.023438 L 219.953125 330.710938 L 224.023438 328.503906 L 228.140625 326.375 L 232.503906 327.386719 L 234.355469 327.882812 L 238.878906 326.464844 L 243.15625 324.617188 L 247.285156 322.515625 L 248.449219 318.179688 L 248.070312 314.617188 L 252.285156 312.65625 L 256.292969 310.34375 L 260.253906 307.949219 L 264.160156 305.460938 L 265.882812 302.769531 L 265.757812 298.96875 L 270.339844 300.195312 L 272.394531 304.355469 L 274.542969 304.929688 L 279.105469 303.574219 L 283.222656 301.449219 L 287.304688 299.265625 L 288.421875 295.101562 L 288.480469 292.042969 L 292.410156 289.59375 L 296.457031 287.347656 L 300.335938 284.808594 L 304.242188 282.320312 L 308.480469 280.40625 L 312.308594 277.78125 L 316.148438 275.175781 L 320.324219 273.152344 L 324.429688 271.003906 L 328.035156 267.996094 L 329.160156 266.238281 L 328.375 261.347656 L 327.859375 258.4375 L 330.125 260.335938 L 333.648438 263.644531 L 336.613281 267.277344 L 338.621094 267.8125 L 343.167969 266.433594 L 347.4375 264.578125 L 348.5625 260.378906 L 348.519531 257.195312 L 352.527344 254.882812 L 356.121094 256.015625 L 358.96875 256.777344 L 363.128906 254.730469 L 364.007812 251.460938 L 365.191406 249.042969 L 368.421875 245.386719 L 372.261719 242.777344 L 376.488281 240.84375 L 380.542969 238.609375 L 384.453125 236.128906 L 388.15625 233.285156 L 392.164062 230.972656 L 396.425781 229.09375 L 400.25 226.464844 L 404.496094 224.558594 L 408.550781 222.328125 L 412.457031 219.839844 L 412.996094 217.832031 L 414.691406 214.449219 L 418.46875 211.734375 L 422.511719 209.480469 L 426.550781 207.222656 L 430.527344 204.851562 L 434.597656 202.648438 L 438.507812 200.164062 L 442.398438 197.652344 L 446.410156 195.335938 L 450.457031 193.09375 L 454.425781 190.707031 L 458.582031 188.65625 L 462.589844 186.339844 L 466.488281 183.835938 L 470.496094 181.523438 L 474.375 178.984375 L 473.539062 177.535156 L 471.878906 174.664062 L 468.449219 177.980469 L 464.34375 180.121094 L 460.914062 183.433594 L 456.839844 185.632812 L 452.40625 187.214844 L 448.566406 189.816406 L 444.527344 192.082031 L 440.457031 194.285156 L 436.871094 197.332031 L 433.332031 200.457031 L 428.902344 202.042969 L 425.105469 204.71875 L 421.003906 206.875 L 416.988281 209.171875 L 415.621094 210.972656 L 413.648438 212.648438 L 409.972656 215.535156 L 405.90625 217.75 L 401.488281 219.347656 L 401.074219 219.375 L 396.625 220.183594 Z M 215.894531 235.4375 L 213.625 236.441406 L 213.222656 236.980469 L 214.285156 237.585938 Z M 234.269531 253.6875 L 234.855469 256.554688 L 236.179688 256.992188 L 236.234375 255.757812 Z M 320.417969 190.003906 L 319.484375 191.664062 L 322.667969 195.167969 L 323.96875 196.15625 L 326.730469 198.164062 L 330.542969 198.289062 L 333.945312 194.925781 L 334.066406 193.929688 L 331.539062 190.757812 L 331.097656 190.300781 L 325.644531 189.804688 L 322.746094 189.78125 Z M 294.597656 200.824219 L 294.246094 200.886719 L 294.476562 200.609375 L 295.074219 200.410156 Z M 220.230469 243.621094 L 217.320312 242.84375 L 217.546875 245.171875 L 219.273438 246.222656 Z M 223.78125 244.777344 L 223.394531 247.136719 L 225.230469 251.421875 L 228.976562 253.773438 L 228.8125 249.355469 L 225.335938 246.019531 Z M 243.875 242.558594 L 243.816406 246.035156 L 247.539062 249.230469 L 249.773438 253.285156 L 250.523438 254.074219 L 250.910156 252.628906 L 248.164062 248.871094 L 246.734375 244.351562 Z M 353.636719 252.105469 L 353.964844 248.113281 L 357.835938 245.5625 L 361.5625 242.761719 L 366.394531 244.738281 L 364.441406 247.742188 L 362.070312 252.578125 L 362.011719 252.796875 L 360.8125 253.304688 L 357.09375 253.53125 Z M 274.894531 240.742188 L 277.628906 242.546875 L 276.847656 244.125 L 275.269531 243.910156 Z M 233.734375 271.273438 L 232.550781 273.917969 L 236.765625 276.523438 L 235.6875 272.105469 Z M 284.757812 183.78125 L 284.003906 185.425781 L 285.734375 185.472656 L 288.730469 182.699219 Z M 268.066406 247.429688 L 268.945312 247.5625 L 270.425781 251.515625 L 267.917969 248.152344 Z M 340.183594 233.152344 L 339.960938 233.113281 L 339.832031 233.355469 L 337.910156 238.816406 L 337.6875 239.9375 L 338.515625 239.867188 L 342.671875 237.808594 L 343.75 236.4375 Z M 236.714844 287.542969 L 237.285156 286.679688 L 238.320312 286.617188 L 237.621094 287.257812 Z M 261.347656 263.5625 L 261.46875 262.566406 L 260.085938 261.378906 L 260.511719 263.117188 Z M 261.347656 263.5625 "/>
<path fill-rule="evenodd" fill="rgb(35.294118%, 58.431373%, 31.372549%)" fill-opacity="1" d="M 258.789062 166.566406 L 254.398438 168.222656 L 250.371094 170.503906 L 246.363281 172.816406 L 242.898438 176.070312 L 239.011719 178.59375 L 234.707031 180.398438 L 230.414062 182.214844 L 226.757812 185.136719 L 222.625 187.234375 L 218.347656 189.082031 L 214.667969 191.96875 L 210.957031 194.792969 L 207.136719 197.433594 L 207.039062 197.796875 L 204.925781 202.863281 L 200.640625 204.699219 L 192.585938 209.253906 L 188.757812 211.878906 L 188.179688 214.03125 L 187.113281 218.292969 L 182.957031 220.351562 L 179.15625 223.019531 L 178.660156 224.871094 L 177.304688 229.066406 L 173.023438 230.910156 L 172.210938 233.9375 L 171.269531 237.128906 L 167.480469 239.824219 L 166.789062 242.410156 L 165.59375 245.8125 L 161.667969 248.265625 L 160.894531 251.160156 L 160.480469 255.46875 L 160.078125 256.976562 L 158.722656 261.675781 L 158.269531 263.363281 L 156.882812 267.75 L 156.328125 269.828125 L 155.113281 273.941406 L 154.503906 276.226562 L 153.703125 280.757812 L 153.300781 282.261719 L 154.898438 286.6875 L 154.230469 290.917969 L 153.753906 292.691406 L 152.324219 296.875 L 151.695312 299.222656 L 150.503906 302.976562 L 149.78125 305.671875 L 148.957031 309.558594 L 148.347656 311.84375 L 146.960938 315.355469 L 143.28125 318.238281 L 142.6875 320.457031 L 141.847656 325.011719 L 137.605469 326.917969 L 137.027344 329.066406 L 135.835938 333.113281 L 135.207031 335.460938 L 134.597656 340.222656 L 134.300781 341.328125 L 132.546875 345.929688 L 131.992188 348.007812 L 133.789062 352.3125 L 132.679688 355.414062 L 128.636719 357.667969 L 124.675781 360.0625 L 120.707031 362.445312 L 116.6875 364.738281 L 113.25 364.171875 L 110.609375 363.464844 L 106.699219 362.609375 L 104.417969 361.996094 L 100.597656 364.636719 L 96.617188 367.003906 L 96.167969 368.691406 L 99.320312 371.679688 L 103.027344 368.84375 L 104.480469 369.234375 L 104.183594 370.851562 L 99.664062 372.28125 L 99.320312 372.214844 L 94.617188 372.792969 L 90.566406 375.035156 L 86.667969 377.535156 L 82.785156 380.066406 L 74.824219 384.792969 L 70.910156 387.265625 L 66.933594 389.636719 L 67.484375 390.59375 L 69.625 394.300781 L 72.203125 393.214844 L 73.941406 392.515625 L 74.074219 392.132812 L 76.375 387.480469 L 80.128906 384.71875 L 83.980469 382.140625 L 84.640625 380.691406 L 87.394531 378.792969 L 91.242188 376.203125 L 95.3125 373.996094 L 96.488281 373.851562 L 101.097656 374.761719 L 104.222656 374.726562 L 106.773438 378.597656 L 106.144531 383.503906 L 103.285156 385.957031 L 102.554688 386.539062 L 98.695312 389.109375 L 94.675781 391.402344 L 92.863281 391.972656 L 90.03125 392.621094 L 85.605469 394.207031 L 81.425781 396.226562 L 77.511719 398.699219 L 74.273438 402.351562 L 74.429688 402.617188 L 76.742188 406.625 L 78.304688 409.332031 L 80.882812 404.539062 L 84.890625 402.226562 L 89.128906 400.316406 L 93.097656 397.925781 L 96.964844 395.371094 L 101.023438 393.140625 L 104.890625 390.589844 L 104.898438 390.371094 L 107.710938 386.21875 L 109.28125 382.496094 L 109.621094 380.269531 L 110.257812 376.585938 L 108.976562 371.980469 L 109.441406 370.703125 L 110.261719 371.242188 L 113.449219 374.742188 L 116.113281 378.550781 L 118.792969 377.644531 L 119.316406 376.699219 L 121.890625 373.75 L 125.765625 371.207031 L 129.972656 369.238281 L 133.988281 368.230469 L 133.769531 373.699219 L 133.085938 374.628906 L 129.941406 378.4375 L 128.835938 381.894531 L 128.035156 384.394531 L 124.476562 387.484375 L 124.605469 389.679688 L 127.542969 393.328125 L 126.65625 399.183594 L 128.691406 403.351562 L 134.113281 404.175781 L 137.320312 403.714844 L 136.71875 408.695312 L 136.226562 409.691406 L 135.679688 415.351562 L 136.027344 416.753906 L 133.410156 421.472656 L 133.601562 421.894531 L 134.105469 422.671875 L 136.871094 425.351562 L 140.511719 428.59375 L 143.453125 432.238281 L 145.324219 432.855469 L 150.003906 433.800781 L 152.023438 437.976562 L 154.503906 441.890625 L 155.773438 441.691406 L 155.941406 441.0625 L 158.160156 436.574219 L 158.839844 434.042969 L 156.449219 430.078125 L 157.621094 426.378906 L 158.355469 423.636719 L 156.074219 419.609375 L 153.695312 415.636719 L 154.738281 412.136719 L 155.515625 409.242188 L 156.339844 405.652344 L 157.050781 403.011719 L 154.769531 398.984375 L 155.742188 395.355469 L 156.460938 392.664062 L 157.414062 389 L 158.121094 386.359375 L 159.089844 382.644531 L 159.78125 380.058594 L 160.761719 376.285156 L 161.441406 373.757812 L 162.574219 370.164062 L 163.335938 367.320312 L 164.230469 363.78125 L 168.019531 361.085938 L 171.125 357.476562 L 171.132812 357.226562 L 172.75 351.195312 L 172.859375 350.957031 L 176.039062 347.207031 L 180.070312 344.9375 L 184.195312 342.824219 L 188.503906 341.03125 L 192.597656 338.867188 L 195.582031 338.015625 L 197.234375 337.636719 L 199.789062 335.585938 L 200.921875 334.769531 L 204.933594 332.460938 L 208.722656 329.765625 L 212.808594 327.59375 L 215.152344 326.714844 L 217.253906 326.035156 L 221.554688 324.230469 L 225.644531 322.054688 L 229.609375 319.664062 L 234.902344 320.65625 L 237.253906 324.644531 L 237.761719 324.53125 L 242.308594 323.148438 L 246.558594 321.253906 L 247.1875 318.90625 L 245.84375 314.339844 L 242.007812 311.210938 L 244.320312 308.117188 L 246.757812 308.46875 L 250.144531 308.953125 L 253.8125 306.046875 L 257.609375 303.367188 L 261.382812 300.648438 L 261.40625 300.007812 L 261.480469 294.621094 L 258.6875 290.890625 L 255.464844 290.398438 L 251.015625 291.949219 L 246.3125 292.691406 L 245.96875 292.464844 L 241.160156 293.386719 L 237.628906 296.53125 L 232.980469 295.042969 L 229.699219 292.054688 L 228.300781 292.402344 L 223.875 291.21875 L 224.089844 294.832031 L 221.773438 296.835938 L 219.402344 297.542969 L 218.570312 292.675781 L 219.074219 292.15625 L 222.484375 288.8125 L 226.003906 285.652344 L 230.003906 283.328125 L 234.507812 281.871094 L 237.128906 277.152344 L 237.164062 276.597656 L 240.34375 273.460938 L 242.226562 273.675781 L 245.171875 277.320312 L 248.925781 279.070312 L 250.441406 279.621094 L 254.832031 282.429688 L 256.757812 283.378906 L 260.476562 284.515625 L 263.832031 286.378906 L 265.195312 287.132812 L 267.574219 291.105469 L 270.976562 294.484375 L 274.507812 297.789062 L 276.019531 302.261719 L 278.128906 301.882812 L 282.359375 299.953125 L 286.515625 297.898438 L 287.050781 295.890625 L 286.636719 290.789062 L 284.882812 286.457031 L 284.953125 285.9375 L 288.613281 283.019531 L 292.914062 281.210938 L 297.070312 279.152344 L 299.589844 277.964844 L 301.277344 277.183594 L 306.21875 276.488281 L 309.9375 273.671875 L 312.148438 270.714844 L 313 269.71875 L 317.132812 267.621094 L 319.628906 266.394531 L 321.347656 265.667969 L 321.765625 265.160156 L 324.039062 261.070312 L 323.433594 258.855469 L 322.601562 258.582031 L 317.367188 258.777344 L 314.839844 258.472656 L 311.820312 258.421875 L 307.601562 260.367188 L 302.390625 260.316406 L 302.242188 260.347656 L 296.34375 258.460938 L 294.164062 254.375 L 293.398438 254.285156 L 289.550781 256.875 L 285.480469 259.082031 L 285.414062 259.429688 L 283.207031 264.394531 L 280.28125 262.390625 L 276.710938 259.109375 L 274.640625 258.816406 L 270.953125 257.089844 L 267.636719 253.660156 L 265.300781 251.898438 L 263.414062 250.753906 L 263.742188 249.199219 L 264.707031 244.664062 L 265.179688 242.429688 L 266.570312 238.242188 L 267.3125 236.871094 L 270.804688 233.660156 L 274.980469 231.640625 L 276.847656 232.308594 L 280.316406 235.652344 L 283.273438 239.289062 L 285.222656 240.121094 L 287.90625 241.957031 L 292.863281 244.4375 L 293.113281 244.53125 L 296.648438 247.597656 L 301.113281 250.367188 L 303.558594 254.296875 L 304.558594 255.101562 L 308.613281 252.867188 L 313.800781 252.597656 L 315.320312 252.851562 L 319.261719 252.796875 L 323.15625 253.667969 L 325.398438 254.171875 L 329.597656 255.296875 L 332.710938 257.578125 L 333.777344 258.226562 L 337.675781 261.320312 L 340.71875 264.90625 L 342.125 264.628906 L 346.664062 263.234375 L 347.21875 261.152344 L 346.492188 256.230469 L 345.179688 251.640625 L 345.195312 251.433594 L 349.246094 249.191406 L 353.035156 246.503906 L 356.796875 243.765625 L 360.996094 241.78125 L 365.234375 239.863281 L 369.246094 237.558594 L 373.246094 235.226562 L 377.257812 232.921875 L 380.976562 230.105469 L 384.898438 227.640625 L 389.085938 225.636719 L 392.578125 224.277344 L 393.460938 223.960938 L 393.699219 223.632812 L 396.625 220.183594 L 401.074219 219.375 L 401.488281 219.347656 L 405.90625 217.75 L 409.972656 215.535156 L 413.648438 212.648438 L 415.621094 210.972656 L 416.988281 209.171875 L 421.003906 206.875 L 425.105469 204.71875 L 428.902344 202.042969 L 433.332031 200.457031 L 436.871094 197.332031 L 440.457031 194.285156 L 444.527344 192.082031 L 448.566406 189.816406 L 452.40625 187.214844 L 456.839844 185.632812 L 460.914062 183.433594 L 464.34375 180.121094 L 468.449219 177.980469 L 471.878906 174.664062 L 471.226562 173.527344 L 468.910156 169.519531 L 468.125 168.15625 L 464.222656 170.65625 L 460.644531 173.714844 L 456.703125 176.140625 L 452.570312 178.242188 L 452.078125 179.238281 L 449.136719 181.546875 L 445.664062 182.941406 L 444.398438 182.601562 L 443.257812 184.328125 L 440.980469 185.9375 L 437.132812 188.523438 L 433.175781 190.929688 L 429.167969 193.242188 L 425.378906 195.933594 L 421.625 198.691406 L 418.039062 201.738281 L 414.546875 204.945312 L 412.171875 207.621094 L 411.320312 208.613281 L 407.300781 210.90625 L 403.890625 212.402344 L 405.863281 208.414062 L 405.34375 206.21875 L 404.636719 206.289062 L 399.5 206.652344 L 397.148438 205.605469 L 398.328125 204.621094 L 401.871094 201.503906 L 405.859375 199.152344 L 409.886719 196.875 L 411.300781 192.089844 L 411.671875 190.710938 L 415.753906 188.523438 L 419.816406 186.300781 L 423.941406 184.1875 L 428.113281 182.160156 L 432.195312 179.976562 L 433.019531 179.550781 L 437.152344 179.304688 L 441.3125 177.257812 L 445.167969 174.675781 L 445.847656 172.148438 L 448.226562 170.71875 L 452.199219 168.339844 L 456.167969 165.960938 L 460.074219 163.472656 L 464.117188 161.214844 L 463.402344 159.976562 L 459.371094 162.25 L 455.429688 164.683594 L 451.445312 167.039062 L 447.464844 169.394531 L 443.480469 171.753906 L 439.5 174.117188 L 435.519531 176.476562 L 431.433594 178.652344 L 427.375 180.882812 L 423.257812 183.003906 L 419.171875 185.183594 L 415.128906 187.4375 L 411.070312 189.664062 L 410.257812 192.695312 L 409.316406 195.882812 L 405.292969 198.171875 L 401.300781 200.511719 L 397.601562 203.359375 L 393.898438 206.207031 L 390.078125 208.847656 L 386.070312 211.160156 L 381.84375 213.09375 L 377.976562 215.652344 L 373.96875 217.964844 L 369.785156 219.980469 L 365.878906 222.464844 L 362.023438 225.046875 L 357.9375 227.222656 L 353.660156 225.371094 L 351.132812 224.691406 L 347.007812 223.867188 L 345 223.332031 L 341.078125 225.792969 L 336.984375 227.957031 L 332.652344 229.710938 L 329.28125 228.757812 L 329.699219 224.597656 L 333.972656 222.742188 L 338.046875 220.539062 L 342.011719 218.152344 L 342.671875 215.683594 L 343.746094 211.902344 L 347.394531 208.964844 L 351.433594 206.703125 L 351.886719 205.019531 L 353.476562 200.988281 L 357.332031 198.40625 L 361.433594 196.253906 L 362.09375 193.78125 L 363.226562 190.105469 L 367.304688 187.914062 L 371.203125 185.410156 L 371.910156 182.769531 L 373.023438 179.304688 L 373.824219 176.320312 L 374.628906 172.832031 L 378.710938 170.640625 L 379.496094 167.703125 L 380.402344 164.320312 L 381.191406 161.378906 L 381.726562 157.355469 L 385.789062 155.136719 L 386.347656 153.058594 L 384.320312 148.886719 L 384.925781 144.386719 L 385.304688 142.972656 L 387.070312 138.839844 L 387.777344 136.199219 L 385.394531 132.234375 L 382.863281 131.554688 L 378.945312 134.023438 L 374.9375 136.339844 L 371.222656 135.070312 L 368.429688 134.320312 L 364.582031 136.917969 L 360.6875 135.808594 L 358.21875 135.148438 L 354.328125 137.664062 L 349.558594 136.890625 L 348.347656 136.5625 L 344.050781 138.375 L 340.191406 140.949219 L 335.90625 142.785156 L 332.011719 141.675781 L 329.539062 141.015625 L 328.878906 143.484375 L 328.101562 147.78125 L 323.746094 146.449219 L 321.667969 145.890625 L 317.6875 148.25 L 314.238281 146.59375 L 310.863281 145.6875 L 307.355469 148.871094 L 303.320312 151.140625 L 299.148438 153.167969 L 295.140625 155.480469 L 291.378906 158.226562 L 287.402344 160.589844 L 283.136719 162.460938 L 278.992188 164.539062 L 275.484375 163.625 L 272.6875 162.875 L 268.699219 165.222656 L 265.179688 168.378906 L 260.386719 166.996094 Z M 255.074219 169.390625 L 257.664062 168.570312 L 259.875 172.636719 L 260.816406 177.4375 L 261.523438 180.5625 L 261.132812 182.597656 L 262.171875 187.34375 L 266.027344 190.460938 L 267.542969 190.984375 L 270.320312 193.328125 L 274.503906 193.789062 L 278.417969 191.308594 L 281.4375 187.28125 L 286.777344 187.273438 L 290.097656 187.25 L 292.136719 187.300781 L 296.457031 185.53125 L 297.078125 183.222656 L 294.398438 181.964844 L 292.125 180.734375 L 287.960938 180.070312 L 283.554688 181.691406 L 280.625 185.878906 L 276.554688 184.382812 L 274.554688 184.621094 L 271.308594 182.066406 L 270.078125 177.433594 L 270.191406 177.0625 L 271.421875 171.3125 L 267.46875 168.253906 L 269.355469 166.355469 L 273.332031 163.992188 L 274.367188 164.269531 L 279.628906 165.640625 L 283.84375 163.683594 L 286.285156 162.730469 L 284.722656 165.207031 L 282.117188 169.949219 L 281.917969 170.597656 L 283.945312 174.773438 L 285.125 175.160156 L 289.328125 173.183594 L 291.761719 170.257812 L 291.445312 167.59375 L 295.933594 166.113281 L 297.207031 167.113281 L 297.019531 167.996094 L 293.914062 171.867188 L 294.617188 173.953125 L 295.261719 174.207031 L 300.339844 175.992188 L 302.886719 178.15625 L 304.699219 178.824219 L 308.273438 178.226562 L 313.25 177.589844 L 316.578125 174.101562 L 316.453125 172.035156 L 318.425781 168.046875 L 318.046875 165.769531 L 320.71875 162.757812 L 323.757812 162.472656 L 327.058594 164.488281 L 331.585938 163.070312 L 331.789062 163.179688 L 332.378906 164.445312 L 333.53125 167.519531 L 332.035156 173.105469 L 331.503906 174.035156 L 332.398438 173.738281 L 336.679688 171.894531 L 338.28125 170.121094 L 339.558594 167.625 L 343.511719 165.214844 L 347.128906 162.226562 L 351.246094 160.097656 L 354.085938 155.757812 L 354.238281 155.5625 L 352.464844 151.242188 L 353.6875 145.816406 L 358.902344 145.59375 L 361.433594 146.066406 L 364.886719 149.414062 L 366.789062 149.996094 L 371.253906 148.472656 L 375.976562 147.394531 L 379.492188 144.226562 L 382.804688 144.414062 L 383.117188 149.578125 L 384.898438 153.589844 L 379.632812 153.726562 L 377.816406 157.984375 L 380.117188 162 L 379.785156 163.246094 L 378.425781 168.320312 L 378.089844 169.566406 L 373.976562 171.699219 L 372.765625 176.933594 L 372.414062 178.246094 L 370.746094 183.441406 L 370.53125 184.242188 L 366.6875 186.839844 L 362.570312 188.96875 L 360.871094 194.488281 L 360.726562 195.03125 L 356.578125 197.105469 L 352.804688 199.820312 L 349.03125 202.542969 L 345.164062 205.101562 L 344.976562 209.007812 L 343.0625 210.71875 L 341.453125 216.386719 L 341.304688 216.929688 L 337.363281 219.355469 L 333.257812 221.503906 L 331.246094 222.277344 L 332.027344 219.371094 L 332.582031 216.164062 L 330.410156 212.074219 L 331.714844 209.574219 L 332.851562 205.320312 L 332.976562 202.5 L 337.175781 200.519531 L 341.914062 200.089844 L 342.488281 200.46875 L 347.269531 199.492188 L 346.65625 197.351562 L 347.046875 191.78125 L 346.914062 189.621094 L 347.277344 186.300781 L 343.453125 183.625 L 339.617188 186.238281 L 338.789062 185.859375 L 334.371094 186.402344 L 329.484375 185.886719 L 328.042969 184.703125 L 324.734375 183.289062 L 325.738281 180.710938 L 326.800781 176.75 L 322.839844 175.6875 L 318.082031 176.707031 L 314.847656 180.355469 L 314.984375 183.570312 L 317.519531 187.453125 L 315.425781 190.621094 L 314.90625 194.304688 L 316.480469 198.738281 L 315.429688 199.878906 L 314.28125 200.007812 L 310.671875 196.75 L 310.035156 191.773438 L 305.296875 191.585938 L 301.207031 193.761719 L 297.117188 193.886719 L 295.84375 193.722656 L 291.53125 195.507812 L 287.289062 197.421875 L 283.015625 199.273438 L 277.933594 199.730469 L 277.6875 199.761719 L 273.164062 200.726562 L 270.070312 204.160156 L 270.070312 204.617188 L 267.464844 205.664062 L 265.824219 206.519531 L 261.5625 208.394531 L 257.074219 206.316406 L 257.871094 202 L 258.507812 200.144531 L 258.054688 195.0625 L 254.964844 191.503906 L 253.355469 187.089844 L 251.632812 182.738281 L 250.589844 180.136719 L 250.464844 178.070312 L 249.199219 177.730469 L 245.425781 175.632812 L 247.027344 173.964844 L 251.035156 171.652344 Z M 231.117188 183.433594 L 233.359375 182.601562 L 234.292969 187.40625 L 236.191406 191.652344 L 238.835938 195.472656 L 241.070312 199.527344 L 240.90625 200.390625 L 240.601562 205.140625 L 243.96875 205.691406 L 248.023438 206.199219 L 250.21875 207.257812 L 253.449219 208.410156 L 252.066406 210.460938 L 248.613281 213.738281 L 245.097656 216.902344 L 240.988281 219.042969 L 236.324219 218.296875 L 233.421875 214.628906 L 234.605469 208.601562 L 229.058594 206.460938 L 227.738281 205.351562 L 225.6875 203.0625 L 222.90625 199.324219 L 219.574219 195.90625 L 216.949219 192.074219 L 219.03125 190.265625 L 222.0625 189.125 L 224.253906 193.203125 L 226.738281 194.363281 L 230.335938 195.035156 L 232.632812 195.3125 L 234.34375 192.722656 L 232.3125 188.550781 L 229.589844 184.777344 Z M 129.152344 358.558594 L 133.210938 356.335938 L 134.875 351.6875 L 133.375 347.363281 L 138.632812 347.214844 L 140.28125 343.21875 L 138.808594 338.726562 L 136.46875 334.734375 L 136.5625 334.375 L 138.351562 328.304688 L 138.367188 328.242188 L 138.691406 328.105469 L 143.777344 330.515625 L 144.855469 330.21875 L 146.117188 329.164062 L 148.050781 326.503906 L 148.011719 322.726562 L 144.554688 320.445312 L 143.988281 319.707031 L 144.03125 319.539062 L 147.550781 316.375 L 149.625 311.105469 L 149.699219 310.839844 L 150.929688 305.007812 L 151.167969 304.128906 L 152.953125 298.496094 L 153.050781 298.136719 L 154.144531 297.808594 L 158.132812 297.683594 L 161.742188 294.675781 L 165.773438 292.402344 L 170.109375 290.652344 L 174.613281 289.199219 L 178.726562 287.070312 L 182.019531 283.519531 L 182.902344 281.203125 L 180.71875 281.265625 L 175.464844 281.417969 L 171.0625 283.054688 L 168.171875 287.304688 L 164.359375 289.953125 L 160.71875 288.671875 L 157.898438 288.019531 L 156.0625 286.011719 L 155.328125 283.566406 L 158.328125 279.503906 L 158.386719 279.328125 L 157.957031 278.863281 L 155.78125 275.488281 L 155.855469 275.222656 L 157.714844 269.191406 L 162.460938 268.15625 L 166.507812 265.902344 L 170.324219 263.261719 L 174.949219 262.015625 L 177.300781 263.0625 L 181.316406 263.785156 L 186.054688 263.355469 L 186.550781 263.601562 L 189.835938 266.511719 L 193.785156 266.875 L 197.113281 267.65625 L 199.742188 267.9375 L 203.796875 265.699219 L 205.109375 263.039062 L 201.300781 259.894531 L 200.3125 259.664062 L 195.316406 258.003906 L 194.007812 258.003906 L 189.132812 258.816406 L 184.914062 258.667969 L 183.351562 258.054688 L 179.394531 256.511719 L 177.117188 256.511719 L 172.546875 257.851562 L 170.132812 256.511719 L 166.390625 256.449219 L 162.378906 255.644531 L 161.980469 250.53125 L 162.296875 249.355469 L 166.183594 246.832031 L 167.972656 241.726562 L 168.167969 241.011719 L 171.839844 238.117188 L 173.253906 233.335938 L 173.625 231.953125 L 178.042969 230.347656 L 179.179688 229.914062 L 181.890625 233.695312 L 185.734375 234.414062 L 190.714844 233.78125 L 190.984375 233.789062 L 196.820312 235.105469 L 197.597656 235.3125 L 202.210938 235.1875 L 206.15625 232.757812 L 210.714844 231.402344 L 210.933594 227.613281 L 207.167969 225.257812 L 205.328125 225.507812 L 201.535156 224.757812 L 199.890625 223.300781 L 197.679688 219.230469 L 192.070312 217.621094 L 189.25 218.753906 L 189.503906 213.265625 L 189.519531 213.203125 L 193.257812 210.421875 L 201.335938 205.898438 L 203.972656 204.910156 L 207.613281 207.511719 L 207.957031 207.953125 L 211.53125 211.238281 L 216.410156 213.761719 L 216.589844 213.8125 L 221.707031 216.046875 L 223.472656 216.472656 L 227.503906 218.046875 L 229.164062 222.429688 L 230.5 227.003906 L 236.046875 229 L 236.222656 229.046875 L 238.878906 232.855469 L 244.316406 235.058594 L 245.289062 235.746094 L 248.03125 238.257812 L 253.03125 239.898438 L 254.253906 240.011719 L 254.886719 243.117188 L 249.710938 243.40625 L 249.070312 243.003906 L 246.039062 239.410156 L 241.8125 238.984375 L 237.933594 241.523438 L 238.359375 243.84375 L 239.488281 248.535156 L 240.949219 253.035156 L 244.390625 252.703125 L 247.039062 254.863281 L 247.941406 258.855469 L 247.367188 260.019531 L 248.949219 260.601562 L 251.648438 262.890625 L 256.628906 264.648438 L 257.207031 265.027344 L 260.980469 268.191406 L 265.164062 270.171875 L 266.96875 264.734375 L 266.804688 263.757812 L 268.070312 264.097656 L 273.128906 265.453125 L 274.070312 265.976562 L 278.445312 265.410156 L 281.183594 267.214844 L 284.71875 270.515625 L 287.21875 271.347656 L 292.234375 271.523438 L 289.4375 275.1875 L 285.558594 277.730469 L 282.382812 281.484375 L 281.144531 283.269531 L 281.429688 288.449219 L 282.078125 290.210938 L 277.902344 292.234375 L 275.832031 291.679688 L 272.425781 288.304688 L 270.789062 283.902344 L 267.796875 280.289062 L 264.921875 279.007812 L 262.976562 277.726562 L 258.078125 276.414062 L 253.949219 277.59375 L 253.472656 277.691406 L 248.332031 275.496094 L 248.28125 270.179688 L 243.699219 270.019531 L 239.554688 269.875 L 237.179688 265.902344 L 234.492188 263.328125 L 230.882812 266.332031 L 226.410156 267.84375 L 222.542969 270.398438 L 220.957031 275.265625 L 220.707031 276.480469 L 215.527344 273.058594 L 213.3125 268.992188 L 210.484375 268.027344 L 210.09375 270.851562 L 209.222656 275.09375 L 208.953125 276.851562 L 207.667969 281.65625 L 204.214844 279.589844 L 200.546875 276.363281 L 199.214844 276.277344 L 195.007812 278.246094 L 193.867188 280.21875 L 195.488281 284.628906 L 197.144531 289.015625 L 200.757812 292.273438 L 200.363281 296.777344 L 194.769531 295.730469 L 194.371094 295.65625 L 189.941406 297.234375 L 188.570312 299.308594 L 187.238281 301.816406 L 186.996094 305.5625 L 186.488281 309.773438 L 185.183594 311.953125 L 187.800781 312.042969 L 192.804688 311.453125 L 196.617188 308.804688 L 201.320312 307.6875 L 203.867188 302.84375 L 207.425781 299.753906 L 210.355469 297.421875 L 211.015625 296.71875 L 211.296875 296.875 L 214.570312 300.328125 L 214.644531 303 L 212.578125 306.824219 L 217.019531 307.113281 L 221.304688 307.128906 L 222.230469 306.882812 L 226.554688 305.121094 L 229.054688 302.65625 L 224.421875 299.984375 L 227.132812 296.859375 L 229.257812 297.195312 L 232.257812 300.804688 L 234.246094 299.925781 L 239.15625 299.175781 L 243.292969 297.085938 L 248.292969 296.484375 L 249.75 296.050781 L 252.917969 299.566406 L 250.988281 301.15625 L 249.179688 301.726562 L 246.425781 302.511719 L 241.964844 304.039062 L 238.429688 307.171875 L 234.546875 309.707031 L 230.691406 312.285156 L 226.453125 314.199219 L 222.453125 316.527344 L 218.671875 319.230469 L 214.09375 320.558594 L 210.34375 323.320312 L 206.5625 326.03125 L 203.886719 327.875 L 202.75 328.683594 L 200.28125 329.957031 L 198.625 330.792969 L 193.15625 328.726562 L 191.386719 324.402344 L 188.230469 322.039062 L 185.570312 326.691406 L 184.910156 328.140625 L 182.859375 331.25 L 180.824219 330.503906 L 178.480469 326.511719 L 173.984375 325.136719 L 171.785156 325.03125 L 168.339844 324.617188 L 163.761719 324.320312 L 162.828125 324.324219 L 157.597656 324.519531 L 157.582031 327.890625 L 159.730469 328.214844 L 164.019531 329.515625 L 166.109375 330.007812 L 170.785156 330.953125 L 173.808594 334.550781 L 174.242188 334.835938 L 178.125 337.402344 L 177.082031 339.757812 L 173.148438 342.203125 L 168.707031 342.839844 L 168.222656 342.925781 L 167.503906 343.535156 L 165.226562 346.988281 L 162.695312 346.3125 L 158.539062 343.367188 L 157.773438 343.34375 L 153.429688 345.070312 L 152.847656 346.65625 L 155.304688 350.582031 L 157.066406 351.371094 L 161.730469 352.214844 L 164.457031 354.914062 L 165.21875 355.542969 L 167.347656 359.660156 L 167.257812 359.765625 L 163.574219 362.644531 L 162.234375 367.957031 L 161.9375 369.0625 L 160.238281 374.453125 L 160.070312 375.085938 L 158.597656 380.742188 L 158.40625 381.460938 L 156.957031 387.035156 L 156.742188 387.835938 L 155.3125 393.328125 L 155.078125 394.207031 L 153.617188 399.648438 L 155.882812 403.6875 L 155.667969 404.488281 L 154.429688 409.871094 L 154.113281 411.046875 L 152.542969 416.300781 L 154.957031 420.253906 L 157.222656 424.289062 L 156.964844 425.246094 L 155.210938 430.796875 L 157.636719 434.738281 L 157.464844 435.371094 L 155.976562 435.699219 L 154.042969 431.46875 L 149.648438 428.664062 L 148.796875 423.808594 L 148.132812 419.207031 L 148.140625 418.84375 L 147.054688 417.335938 L 145.398438 415.085938 L 145.527344 414.6875 L 147.921875 409.582031 L 148.597656 407.890625 L 148.46875 402.621094 L 146.539062 398.394531 L 141.886719 395.734375 L 138.960938 394.0625 L 136.800781 393.328125 L 136.597656 389.96875 L 136.488281 388.164062 L 134.167969 385.761719 L 129.8125 387.476562 L 129.324219 386.957031 L 129.425781 386.800781 L 133.011719 383.757812 L 136.304688 380.203125 L 140.78125 378.703125 L 145.179688 377.800781 L 145.683594 377.9375 L 151.589844 378.910156 L 154.59375 374.859375 L 154.636719 372.339844 L 153.53125 367.636719 L 149.398438 364.679688 L 148.695312 364.644531 L 142.894531 363.089844 L 142.402344 363 L 137.300781 363.417969 L 133.027344 365.273438 L 128.664062 366.96875 L 124.335938 368.726562 L 120.582031 371.484375 L 116.765625 374.132812 L 115.597656 373.503906 L 112.347656 370.035156 L 108.921875 366.671875 L 111.28125 364.632812 L 112.082031 364.847656 L 117.238281 365.695312 L 121.265625 363.414062 L 125.214844 360.996094 Z M 240.074219 180.433594 L 244.550781 178.929688 L 246.980469 180.082031 L 249.746094 183.828125 L 250.121094 188.582031 L 249.160156 189.511719 L 249.902344 194.425781 L 254.738281 196.578125 L 255.003906 196.824219 L 255.011719 197.050781 L 255.078125 202.125 L 254.496094 205.414062 L 251.28125 204.320312 L 248.148438 203.671875 L 243.816406 203.285156 L 244.785156 197.847656 L 245.703125 196.851562 L 243.5 195.628906 L 242.011719 193.636719 L 239.246094 189.890625 L 236.625 186.058594 L 236.773438 183.976562 Z M 213.394531 199.015625 L 213.761719 199.257812 L 219.230469 199.871094 L 220.574219 200.671875 L 221.351562 203.546875 L 217.757812 206.574219 L 214.148438 209.582031 L 210.226562 206.644531 L 209.644531 201.777344 L 211.1875 200.746094 Z M 311.402344 146.621094 L 313.304688 147.132812 L 317.796875 149.882812 L 320.039062 152.328125 L 321 153.378906 L 320.839844 153.714844 L 319.933594 153.992188 L 316.171875 154.882812 L 311.914062 156.765625 L 307.675781 158.683594 L 303.175781 160.140625 L 300.136719 160.078125 L 296.914062 158.554688 L 293.421875 158.613281 L 295.835938 156.683594 L 299.84375 154.371094 L 303.851562 152.589844 L 304.136719 152.550781 L 308.261719 150.4375 L 308.296875 150.023438 Z M 363.472656 246.070312 L 363.835938 246.21875 L 363.6875 246.441406 L 362.558594 246.953125 Z M 342.660156 256.304688 L 338.867188 255.289062 L 336.570312 255.011719 L 333.632812 252.96875 L 329.332031 250.105469 L 327.550781 248.640625 L 325.03125 247.242188 L 321.652344 247.679688 L 316.484375 247.992188 L 314.828125 247.792969 L 314.78125 245.039062 L 314.632812 242.558594 L 313.324219 242.511719 L 309.199219 244.628906 L 304.035156 244.9375 L 300.9375 245.125 L 297.480469 242.84375 L 296.898438 242.109375 L 293.101562 238.957031 L 290.003906 239.144531 L 287.3125 236.957031 L 286.222656 232.597656 L 286.601562 232.023438 L 286.960938 226.472656 L 281.707031 224.160156 L 283.828125 219.195312 L 287.050781 221.074219 L 291.398438 223.054688 L 292.570312 223.230469 L 293.621094 226.902344 L 293.550781 228.011719 L 294.238281 227.96875 L 297.46875 231.09375 L 302.28125 232.644531 L 304.78125 232.214844 L 307.382812 232.226562 L 312.503906 231.835938 L 314.789062 231.78125 L 318.371094 232.742188 L 321.128906 228.261719 L 325.382812 226.375 L 328.222656 229.367188 L 333.28125 230.796875 L 337.34375 229.445312 L 335.140625 234.023438 L 333.621094 236.941406 L 333.097656 239.738281 L 332.980469 242.652344 L 336.417969 246.015625 L 336.832031 246.203125 L 336.777344 245.804688 L 339.863281 242.199219 L 343.816406 239.792969 L 346.828125 240.003906 L 350.875 242.761719 L 351.585938 242.601562 L 351.042969 243.054688 L 347.765625 246.632812 L 344.144531 246.898438 L 342.332031 246.472656 L 341.007812 248.707031 L 341.875 253.550781 Z M 199.15625 211.382812 L 198.632812 213.335938 L 200.527344 213.757812 L 202.144531 211.3125 Z M 362.070312 252.578125 L 364.441406 247.742188 L 366.394531 244.738281 L 361.5625 242.761719 L 357.835938 245.5625 L 353.964844 248.113281 L 353.636719 252.105469 L 357.09375 253.53125 L 360.8125 253.304688 L 362.011719 252.796875 Z M 268.863281 172.792969 L 268.554688 174.230469 L 267.023438 179.195312 L 269.042969 183.375 L 269.554688 185.21875 L 267.519531 184.253906 L 265.394531 180.136719 L 262.703125 176.347656 L 262.632812 173.226562 L 267.160156 171.8125 Z M 193.707031 220.457031 L 194.945312 220.8125 L 196.585938 225.207031 L 196.832031 225.867188 L 194.082031 226.65625 L 191.550781 225.976562 L 189.5625 223.917969 L 190.089844 223.445312 Z M 181.535156 223.210938 L 183.675781 221.589844 L 186.914062 220.105469 L 184.347656 222.757812 Z M 330.097656 142.78125 L 330.246094 142.234375 L 330.789062 142.382812 L 332.605469 146.320312 Z M 355.089844 138.988281 L 358.921875 136.367188 L 359.464844 136.511719 L 360.117188 138.4375 L 355.210938 139.199219 L 354.941406 139.125 Z M 307 161.460938 L 305.75 164.601562 L 301.570312 164.597656 L 304.238281 161.984375 Z M 343.25 146.246094 L 342.375 146.378906 L 342.625 145.167969 L 343.464844 145.75 Z M 340.992188 151.597656 L 345.242188 149.699219 L 345.757812 149.769531 L 345.738281 150.558594 L 342.398438 154.027344 L 340.09375 153.042969 Z M 271.984375 189.425781 L 275.902344 190.101562 L 273.570312 192.167969 L 272.523438 192.054688 Z M 231.296875 210.511719 L 231.148438 211.257812 L 228.257812 212.265625 L 230.578125 210.265625 Z M 383.558594 132.757812 L 384.191406 132.925781 L 386.609375 136.875 L 386.394531 137.671875 L 383.949219 138.410156 L 380.382812 136.515625 L 376.046875 138.261719 L 374.617188 138.457031 L 375.675781 137.617188 L 379.683594 135.304688 Z M 370.105469 135.714844 L 370.941406 138.675781 L 365.859375 139.128906 L 364.132812 139.164062 L 365.3125 138.179688 L 369.074219 135.4375 Z M 335.023438 159.769531 L 339.171875 157.695312 L 340.984375 157.871094 L 341.550781 161.820312 L 336.238281 161.875 L 335.238281 161.1875 Z M 288.730469 182.699219 L 285.734375 185.472656 L 284.003906 185.425781 L 284.757812 183.78125 Z M 231.882812 220.859375 L 236.640625 220.769531 L 240.351562 221.316406 L 243.757812 223.839844 L 248.007812 221.949219 L 250.03125 216.195312 L 250.261719 215.59375 L 253.183594 212.394531 L 256.476562 208.847656 L 259.605469 210.199219 L 259.011719 213.234375 L 258.011719 216.464844 L 257.828125 220.445312 L 257.207031 222.273438 L 257.648438 227.363281 L 257.234375 228.671875 L 256.25 233.515625 L 256.054688 235.882812 L 252.734375 235.542969 L 249.285156 233.414062 L 248.433594 232.683594 L 242.507812 230.929688 L 242.328125 230.863281 L 239.828125 226.964844 L 233.964844 225.390625 L 233.550781 225.242188 L 231.308594 221.191406 L 231.148438 220.507812 Z M 216.390625 231.976562 L 211.988281 233.609375 L 208.914062 237.535156 L 208.035156 239.972656 L 209.285156 244.597656 L 213.894531 247.277344 L 214.839844 247.800781 L 218.441406 250 L 221.410156 253.628906 L 224.519531 255.308594 L 226.261719 256.171875 L 229.984375 259.367188 L 233.433594 261.496094 L 234.675781 262 L 238.628906 261.238281 L 240.9375 258.386719 L 239.410156 253.925781 L 237.015625 249.964844 L 232.925781 246.980469 L 228.832031 244 L 226.910156 239.765625 L 226.042969 239.433594 L 222.816406 236.785156 L 220.308594 232.886719 Z M 377.820312 141.949219 L 374.496094 144.832031 L 371.273438 145.730469 L 373.398438 142.925781 Z M 215.894531 235.4375 L 214.285156 237.585938 L 213.222656 236.980469 L 213.625 236.441406 Z M 302.058594 195.230469 L 304.769531 194.8125 L 303.773438 198.207031 L 299.753906 200.496094 L 296.074219 203.382812 L 291.226562 204.238281 L 287.621094 207.253906 L 284.492188 206.519531 L 281.445312 205.808594 L 278.082031 209.242188 L 273.8125 207.34375 L 274.574219 203.164062 L 279.515625 202.464844 L 282.5 202.328125 L 285.265625 203.171875 L 289.222656 200.769531 L 292.894531 197.871094 L 297.339844 196.316406 Z M 130.351562 397.660156 L 129.832031 397.351562 L 129.910156 396.898438 L 131.003906 396.675781 Z M 270.046875 209.515625 L 273.828125 211.132812 L 275.078125 211.957031 L 279.21875 214.910156 L 278.199219 218.703125 L 277.925781 221 L 275.800781 223.800781 L 273.078125 223.796875 L 270.148438 223.269531 L 267.503906 227.015625 L 267.332031 227.648438 L 266.324219 233.042969 L 265.550781 233.816406 L 261.945312 236.832031 L 260.53125 236.386719 L 259.894531 233.28125 L 260.207031 231.230469 L 261.902344 227.5 L 265.714844 224.84375 L 264.988281 223.125 L 263.863281 221.636719 L 262.324219 219.320312 L 262.277344 218.890625 L 266.285156 216.574219 L 266.304688 211.675781 L 266.015625 206.855469 Z M 344.292969 175.820312 L 340.695312 178.847656 L 339.804688 179.929688 L 342.90625 182.679688 L 347.03125 180.566406 L 347.863281 180.621094 L 353.40625 182.765625 L 354.046875 183.464844 L 353.8125 182.53125 L 356.417969 178.3125 L 360.214844 175.628906 L 363.371094 171.84375 L 363.523438 171.578125 L 365.605469 166.457031 L 370.039062 164.878906 L 373.628906 161.84375 L 376.613281 158.679688 L 372.292969 155.828125 L 370.597656 156.59375 L 366.429688 158.628906 L 363.277344 161.035156 L 363.136719 162.183594 L 360.902344 167.570312 L 355.957031 168.253906 L 351.113281 169.125 L 348.214844 173.363281 Z M 292.65625 206.714844 L 293.710938 206.539062 L 293.308594 207.84375 L 292.101562 207.472656 Z M 220.230469 243.621094 L 219.273438 246.222656 L 217.546875 245.171875 L 217.320312 242.84375 Z M 206.558594 251.972656 L 207.324219 256.417969 L 209.601562 257.242188 L 214.136719 255.84375 L 213.941406 252.597656 L 212.21875 252.523438 Z M 311.582031 206.914062 L 311 210.722656 L 308.195312 208.867188 L 305.121094 205.296875 L 306.542969 203 L 308.785156 203.183594 Z M 225.335938 246.019531 L 228.8125 249.355469 L 228.976562 253.773438 L 225.230469 251.421875 L 223.394531 247.136719 L 223.78125 244.777344 Z M 331.097656 190.300781 L 331.539062 190.757812 L 334.066406 193.929688 L 333.945312 194.925781 L 330.542969 198.289062 L 326.730469 198.164062 L 323.96875 196.15625 L 322.667969 195.167969 L 319.484375 191.664062 L 320.417969 190.003906 L 322.746094 189.78125 L 325.644531 189.804688 Z M 297.007812 214.257812 L 297.992188 214.757812 L 300.945312 218.398438 L 300.789062 220.804688 L 298.628906 219.734375 L 293.664062 217.714844 L 293.199219 217.527344 L 287.835938 216.878906 L 284.738281 217.066406 L 285.753906 213.273438 L 290.300781 211.894531 L 292.707031 212.464844 Z M 225.296875 262.070312 L 222.246094 260.628906 L 217.980469 262.496094 L 217.292969 266.695312 L 221.269531 268.199219 L 225.417969 266.125 Z M 246.734375 244.351562 L 248.164062 248.871094 L 250.910156 252.628906 L 250.523438 254.074219 L 249.773438 253.285156 L 247.539062 249.230469 L 243.816406 246.035156 L 243.875 242.558594 Z M 234.269531 253.6875 L 236.234375 255.757812 L 236.179688 256.992188 L 234.855469 256.554688 Z M 257.851562 248.621094 L 257.316406 247.328125 L 258.355469 248.332031 L 258.289062 249.011719 Z M 176.03125 300.917969 L 172.097656 303.355469 L 171.75 303.675781 L 173.929688 307.761719 L 175.386719 309.058594 L 174.609375 307.371094 L 176.425781 301.601562 L 176.53125 300.917969 Z M 319.144531 218.578125 L 319.898438 216.878906 L 322.53125 216.621094 L 321.304688 219.316406 Z M 336.632812 144.046875 L 338.210938 143.441406 L 337.523438 145.585938 L 333.160156 146.359375 Z M 233.734375 271.273438 L 235.6875 272.105469 L 236.765625 276.523438 L 232.550781 273.917969 Z M 209.148438 284.222656 L 214.144531 284.546875 L 211.128906 287.660156 L 209.425781 287.269531 Z M 260.085938 261.378906 L 261.46875 262.566406 L 261.347656 263.5625 L 260.511719 263.117188 Z M 314.554688 235.390625 L 314.992188 237.007812 L 315.726562 237.414062 L 316.769531 235.984375 Z M 339.960938 233.113281 L 340.183594 233.152344 L 343.75 236.4375 L 342.671875 237.808594 L 338.515625 239.867188 L 337.6875 239.9375 L 337.910156 238.816406 L 339.832031 233.355469 Z M 346 229.792969 L 346.273438 225.539062 L 351.824219 225.894531 L 352.457031 226.066406 L 354.238281 230.074219 L 352.769531 231.230469 L 350.488281 232.835938 L 350.121094 232.757812 Z M 237.285156 286.679688 L 236.714844 287.542969 L 237.621094 287.257812 L 238.320312 286.617188 Z M 106.113281 364.933594 L 103.761719 364.304688 L 105.15625 363.277344 L 105.421875 363.347656 Z M 202.082031 312.882812 L 198.40625 311.898438 L 194.761719 314.839844 L 194.378906 317.332031 L 195.980469 316.957031 L 200.140625 314.90625 Z M 245.929688 319.632812 L 245.832031 319.996094 L 244.097656 320.691406 L 244.035156 316.878906 Z M 263.488281 256.054688 L 264.027344 258.949219 L 261.878906 256.984375 L 261.597656 254.742188 Z M 263.488281 256.054688 "/>
<path fill-rule="evenodd" fill="rgb(49.019608%, 94.901961%, 47.45098%)" fill-opacity="1" d="M 255.074219 169.390625 L 251.035156 171.652344 L 247.027344 173.964844 L 245.425781 175.632812 L 249.199219 177.730469 L 250.464844 178.070312 L 250.589844 180.136719 L 251.632812 182.738281 L 253.355469 187.089844 L 254.964844 191.503906 L 258.054688 195.0625 L 258.507812 200.144531 L 257.871094 202 L 257.074219 206.316406 L 261.5625 208.394531 L 265.824219 206.519531 L 267.464844 205.664062 L 270.070312 204.617188 L 270.070312 204.160156 L 273.164062 200.726562 L 277.6875 199.761719 L 277.933594 199.730469 L 283.015625 199.273438 L 287.289062 197.421875 L 291.53125 195.507812 L 295.84375 193.722656 L 297.117188 193.886719 L 301.207031 193.761719 L 305.296875 191.585938 L 310.035156 191.773438 L 310.671875 196.75 L 314.28125 200.007812 L 315.429688 199.878906 L 316.480469 198.738281 L 314.90625 194.304688 L 315.425781 190.621094 L 317.519531 187.453125 L 314.984375 183.570312 L 314.847656 180.355469 L 318.082031 176.707031 L 322.839844 175.6875 L 326.800781 176.75 L 325.738281 180.710938 L 324.734375 183.289062 L 328.042969 184.703125 L 329.484375 185.886719 L 334.371094 186.402344 L 338.789062 185.859375 L 339.617188 186.238281 L 343.453125 183.625 L 347.277344 186.300781 L 346.914062 189.621094 L 347.046875 191.78125 L 346.65625 197.351562 L 347.269531 199.492188 L 342.488281 200.46875 L 341.914062 200.089844 L 337.175781 200.519531 L 332.976562 202.5 L 332.851562 205.320312 L 331.714844 209.574219 L 330.410156 212.074219 L 332.582031 216.164062 L 332.027344 219.371094 L 331.246094 222.277344 L 333.257812 221.503906 L 337.363281 219.355469 L 341.304688 216.929688 L 341.453125 216.386719 L 343.0625 210.71875 L 344.976562 209.007812 L 345.164062 205.101562 L 349.03125 202.542969 L 352.804688 199.820312 L 356.578125 197.105469 L 360.726562 195.03125 L 360.871094 194.488281 L 362.570312 188.96875 L 366.6875 186.839844 L 370.53125 184.242188 L 370.746094 183.441406 L 372.414062 178.246094 L 372.765625 176.933594 L 373.976562 171.699219 L 378.089844 169.566406 L 378.425781 168.320312 L 379.785156 163.246094 L 380.117188 162 L 377.816406 157.984375 L 379.632812 153.726562 L 384.898438 153.589844 L 383.117188 149.578125 L 382.804688 144.414062 L 379.492188 144.226562 L 375.976562 147.394531 L 371.253906 148.472656 L 366.789062 149.996094 L 364.886719 149.414062 L 361.433594 146.066406 L 358.902344 145.59375 L 353.6875 145.816406 L 352.464844 151.242188 L 354.238281 155.5625 L 354.085938 155.757812 L 351.246094 160.097656 L 347.128906 162.226562 L 343.511719 165.214844 L 339.558594 167.625 L 338.28125 170.121094 L 336.679688 171.894531 L 332.398438 173.738281 L 331.503906 174.035156 L 332.035156 173.105469 L 333.53125 167.519531 L 332.378906 164.445312 L 331.789062 163.179688 L 331.585938 163.070312 L 327.058594 164.488281 L 323.757812 162.472656 L 320.71875 162.757812 L 318.046875 165.769531 L 318.425781 168.046875 L 316.453125 172.035156 L 316.578125 174.101562 L 313.25 177.589844 L 308.273438 178.226562 L 304.699219 178.824219 L 302.886719 178.15625 L 300.339844 175.992188 L 295.261719 174.207031 L 294.617188 173.953125 L 293.914062 171.867188 L 297.019531 167.996094 L 297.207031 167.113281 L 295.933594 166.113281 L 291.445312 167.59375 L 291.761719 170.257812 L 289.328125 173.183594 L 285.125 175.160156 L 283.945312 174.773438 L 281.917969 170.597656 L 282.117188 169.949219 L 284.722656 165.207031 L 286.285156 162.730469 L 283.84375 163.683594 L 279.628906 165.640625 L 274.367188 164.269531 L 273.332031 163.992188 L 269.355469 166.355469 L 267.46875 168.253906 L 271.421875 171.3125 L 270.191406 177.0625 L 270.078125 177.433594 L 271.308594 182.066406 L 274.554688 184.621094 L 276.554688 184.382812 L 280.625 185.878906 L 283.554688 181.691406 L 287.960938 180.070312 L 292.125 180.734375 L 294.398438 181.964844 L 297.078125 183.222656 L 296.457031 185.53125 L 292.136719 187.300781 L 290.097656 187.25 L 286.777344 187.273438 L 281.4375 187.28125 L 278.417969 191.308594 L 274.503906 193.789062 L 270.320312 193.328125 L 267.542969 190.984375 L 266.027344 190.460938 L 262.171875 187.34375 L 261.132812 182.597656 L 261.523438 180.5625 L 260.816406 177.4375 L 259.875 172.636719 L 257.664062 168.570312 Z M 219.03125 190.265625 L 216.949219 192.074219 L 219.574219 195.90625 L 222.90625 199.324219 L 225.6875 203.0625 L 227.738281 205.351562 L 229.058594 206.460938 L 234.605469 208.601562 L 233.421875 214.628906 L 236.324219 218.296875 L 240.988281 219.042969 L 245.097656 216.902344 L 248.613281 213.738281 L 252.066406 210.460938 L 253.449219 208.410156 L 250.21875 207.257812 L 248.023438 206.199219 L 243.96875 205.691406 L 240.601562 205.140625 L 240.90625 200.390625 L 241.070312 199.527344 L 238.835938 195.472656 L 236.191406 191.652344 L 234.292969 187.40625 L 233.359375 182.601562 L 231.117188 183.433594 L 229.589844 184.777344 L 232.3125 188.550781 L 234.34375 192.722656 L 232.632812 195.3125 L 230.335938 195.035156 L 226.738281 194.363281 L 224.253906 193.203125 L 222.0625 189.125 Z M 193.257812 210.421875 L 189.519531 213.203125 L 189.503906 213.265625 L 189.25 218.753906 L 192.070312 217.621094 L 197.679688 219.230469 L 199.890625 223.300781 L 201.535156 224.757812 L 205.328125 225.507812 L 207.167969 225.257812 L 210.933594 227.613281 L 210.714844 231.402344 L 206.15625 232.757812 L 202.210938 235.1875 L 197.597656 235.3125 L 196.820312 235.105469 L 190.984375 233.789062 L 190.714844 233.78125 L 185.734375 234.414062 L 181.890625 233.695312 L 179.179688 229.914062 L 178.042969 230.347656 L 173.625 231.953125 L 173.253906 233.335938 L 171.839844 238.117188 L 168.167969 241.011719 L 167.972656 241.726562 L 166.183594 246.832031 L 162.296875 249.355469 L 161.980469 250.53125 L 162.378906 255.644531 L 166.390625 256.449219 L 170.132812 256.511719 L 172.546875 257.851562 L 177.117188 256.511719 L 179.394531 256.511719 L 183.351562 258.054688 L 184.914062 258.667969 L 189.132812 258.816406 L 194.007812 258.003906 L 195.316406 258.003906 L 200.3125 259.664062 L 201.300781 259.894531 L 205.109375 263.039062 L 203.796875 265.699219 L 199.742188 267.9375 L 197.113281 267.65625 L 193.785156 266.875 L 189.835938 266.511719 L 186.550781 263.601562 L 186.054688 263.355469 L 181.316406 263.785156 L 177.300781 263.0625 L 174.949219 262.015625 L 170.324219 263.261719 L 166.507812 265.902344 L 162.460938 268.15625 L 157.714844 269.191406 L 155.855469 275.222656 L 155.78125 275.488281 L 157.957031 278.863281 L 158.386719 279.328125 L 158.328125 279.503906 L 155.328125 283.566406 L 156.0625 286.011719 L 157.898438 288.019531 L 160.71875 288.671875 L 164.359375 289.953125 L 168.171875 287.304688 L 171.0625 283.054688 L 175.464844 281.417969 L 180.71875 281.265625 L 182.902344 281.203125 L 182.019531 283.519531 L 178.726562 287.070312 L 174.613281 289.199219 L 170.109375 290.652344 L 165.773438 292.402344 L 161.742188 294.675781 L 158.132812 297.683594 L 154.144531 297.808594 L 153.050781 298.136719 L 152.953125 298.496094 L 151.167969 304.128906 L 150.929688 305.007812 L 149.699219 310.839844 L 149.625 311.105469 L 147.550781 316.375 L 144.03125 319.539062 L 143.988281 319.707031 L 144.554688 320.445312 L 148.011719 322.726562 L 148.050781 326.503906 L 146.117188 329.164062 L 144.855469 330.21875 L 143.777344 330.515625 L 138.691406 328.105469 L 138.367188 328.242188 L 138.351562 328.304688 L 136.5625 334.375 L 136.46875 334.734375 L 138.808594 338.726562 L 140.28125 343.21875 L 138.632812 347.214844 L 133.375 347.363281 L 134.875 351.6875 L 133.210938 356.335938 L 129.152344 358.558594 L 125.214844 360.996094 L 121.265625 363.414062 L 117.238281 365.695312 L 112.082031 364.847656 L 111.28125 364.632812 L 108.921875 366.671875 L 112.347656 370.035156 L 115.597656 373.503906 L 116.765625 374.132812 L 120.582031 371.484375 L 124.335938 368.726562 L 128.664062 366.96875 L 133.027344 365.273438 L 137.300781 363.417969 L 142.402344 363 L 142.894531 363.089844 L 148.695312 364.644531 L 149.398438 364.679688 L 153.53125 367.636719 L 154.636719 372.339844 L 154.59375 374.859375 L 151.589844 378.910156 L 145.683594 377.9375 L 145.179688 377.800781 L 140.78125 378.703125 L 136.304688 380.203125 L 133.011719 383.757812 L 129.425781 386.800781 L 129.324219 386.957031 L 129.8125 387.476562 L 134.167969 385.761719 L 136.488281 388.164062 L 136.597656 389.96875 L 136.800781 393.328125 L 138.960938 394.0625 L 141.886719 395.734375 L 146.539062 398.394531 L 148.46875 402.621094 L 148.597656 407.890625 L 147.921875 409.582031 L 145.527344 414.6875 L 145.398438 415.085938 L 147.054688 417.335938 L 148.140625 418.84375 L 148.132812 419.207031 L 148.796875 423.808594 L 149.648438 428.664062 L 154.042969 431.46875 L 155.976562 435.699219 L 157.464844 435.371094 L 157.636719 434.738281 L 155.210938 430.796875 L 156.964844 425.246094 L 157.222656 424.289062 L 154.957031 420.253906 L 152.542969 416.300781 L 154.113281 411.046875 L 154.429688 409.871094 L 155.667969 404.488281 L 155.882812 403.6875 L 153.617188 399.648438 L 155.078125 394.207031 L 155.3125 393.328125 L 156.742188 387.835938 L 156.957031 387.035156 L 158.40625 381.460938 L 158.597656 380.742188 L 160.070312 375.085938 L 160.238281 374.453125 L 161.9375 369.0625 L 162.234375 367.957031 L 163.574219 362.644531 L 167.257812 359.765625 L 167.347656 359.660156 L 165.21875 355.542969 L 164.457031 354.914062 L 161.730469 352.214844 L 157.066406 351.371094 L 155.304688 350.582031 L 152.847656 346.65625 L 153.429688 345.070312 L 157.773438 343.34375 L 158.539062 343.367188 L 162.695312 346.3125 L 165.226562 346.988281 L 167.503906 343.535156 L 168.222656 342.925781 L 168.707031 342.839844 L 173.148438 342.203125 L 177.082031 339.757812 L 178.125 337.402344 L 174.242188 334.835938 L 173.808594 334.550781 L 170.785156 330.953125 L 166.109375 330.007812 L 164.019531 329.515625 L 159.730469 328.214844 L 157.582031 327.890625 L 157.597656 324.519531 L 162.828125 324.324219 L 163.761719 324.320312 L 168.339844 324.617188 L 171.785156 325.03125 L 173.984375 325.136719 L 178.480469 326.511719 L 180.824219 330.503906 L 182.859375 331.25 L 184.910156 328.140625 L 185.570312 326.691406 L 188.230469 322.039062 L 191.386719 324.402344 L 193.15625 328.726562 L 198.625 330.792969 L 200.28125 329.957031 L 202.75 328.683594 L 203.886719 327.875 L 206.5625 326.03125 L 210.34375 323.320312 L 214.09375 320.558594 L 218.671875 319.230469 L 222.453125 316.527344 L 226.453125 314.199219 L 230.691406 312.285156 L 234.546875 309.707031 L 238.429688 307.171875 L 241.964844 304.039062 L 246.425781 302.511719 L 249.179688 301.726562 L 250.988281 301.15625 L 252.917969 299.566406 L 249.75 296.050781 L 248.292969 296.484375 L 243.292969 297.085938 L 239.15625 299.175781 L 234.246094 299.925781 L 232.257812 300.804688 L 229.257812 297.195312 L 227.132812 296.859375 L 224.421875 299.984375 L 229.054688 302.65625 L 226.554688 305.121094 L 222.230469 306.882812 L 221.304688 307.128906 L 217.019531 307.113281 L 212.578125 306.824219 L 214.644531 303 L 214.570312 300.328125 L 211.296875 296.875 L 211.015625 296.71875 L 210.355469 297.421875 L 207.425781 299.753906 L 203.867188 302.84375 L 201.320312 307.6875 L 196.617188 308.804688 L 192.804688 311.453125 L 187.800781 312.042969 L 185.183594 311.953125 L 186.488281 309.773438 L 186.996094 305.5625 L 187.238281 301.816406 L 188.570312 299.308594 L 189.941406 297.234375 L 194.371094 295.65625 L 194.769531 295.730469 L 200.363281 296.777344 L 200.757812 292.273438 L 197.144531 289.015625 L 195.488281 284.628906 L 193.867188 280.21875 L 195.007812 278.246094 L 199.214844 276.277344 L 200.546875 276.363281 L 204.214844 279.589844 L 207.667969 281.65625 L 208.953125 276.851562 L 209.222656 275.09375 L 210.09375 270.851562 L 210.484375 268.027344 L 213.3125 268.992188 L 215.527344 273.058594 L 220.707031 276.480469 L 220.957031 275.265625 L 222.542969 270.398438 L 226.410156 267.84375 L 230.882812 266.332031 L 234.492188 263.328125 L 237.179688 265.902344 L 239.554688 269.875 L 243.699219 270.019531 L 248.28125 270.179688 L 248.332031 275.496094 L 253.472656 277.691406 L 253.949219 277.59375 L 258.078125 276.414062 L 262.976562 277.726562 L 264.921875 279.007812 L 267.796875 280.289062 L 270.789062 283.902344 L 272.425781 288.304688 L 275.832031 291.679688 L 277.902344 292.234375 L 282.078125 290.210938 L 281.429688 288.449219 L 281.144531 283.269531 L 282.382812 281.484375 L 285.558594 277.730469 L 289.4375 275.1875 L 292.234375 271.523438 L 287.21875 271.347656 L 284.71875 270.515625 L 281.183594 267.214844 L 278.445312 265.410156 L 274.070312 265.976562 L 273.128906 265.453125 L 268.070312 264.097656 L 266.804688 263.757812 L 266.96875 264.734375 L 265.164062 270.171875 L 260.980469 268.191406 L 257.207031 265.027344 L 256.628906 264.648438 L 251.648438 262.890625 L 248.949219 260.601562 L 247.367188 260.019531 L 247.941406 258.855469 L 247.039062 254.863281 L 244.390625 252.703125 L 240.949219 253.035156 L 239.488281 248.535156 L 238.359375 243.84375 L 237.933594 241.523438 L 241.8125 238.984375 L 246.039062 239.410156 L 249.070312 243.003906 L 249.710938 243.40625 L 254.886719 243.117188 L 254.253906 240.011719 L 253.03125 239.898438 L 248.03125 238.257812 L 245.289062 235.746094 L 244.316406 235.058594 L 238.878906 232.855469 L 236.222656 229.046875 L 236.046875 229 L 230.5 227.003906 L 229.164062 222.429688 L 227.503906 218.046875 L 223.472656 216.472656 L 221.707031 216.046875 L 216.589844 213.8125 L 216.410156 213.761719 L 211.53125 211.238281 L 207.957031 207.953125 L 207.613281 207.511719 L 203.972656 204.910156 L 201.335938 205.898438 Z M 311.941406 147.554688 L 312.371094 147.671875 L 312.84375 149.121094 L 311.238281 148.328125 Z M 311.402344 146.621094 L 308.296875 150.023438 L 308.261719 150.4375 L 304.136719 152.550781 L 303.851562 152.589844 L 299.84375 154.371094 L 295.835938 156.683594 L 293.421875 158.613281 L 296.914062 158.554688 L 300.136719 160.078125 L 303.175781 160.140625 L 307.675781 158.683594 L 311.914062 156.765625 L 316.171875 154.882812 L 319.933594 153.992188 L 320.839844 153.714844 L 321 153.378906 L 320.039062 152.328125 L 317.796875 149.882812 L 313.304688 147.132812 Z M 199.15625 211.382812 L 202.144531 211.3125 L 200.527344 213.757812 L 198.632812 213.335938 Z M 183.675781 221.589844 L 181.535156 223.210938 L 184.347656 222.757812 L 186.914062 220.105469 Z M 330.246094 142.234375 L 330.097656 142.78125 L 332.605469 146.320312 L 330.789062 142.382812 Z M 336.632812 144.046875 L 333.160156 146.359375 L 337.523438 145.585938 L 338.210938 143.441406 Z M 358.921875 136.367188 L 355.089844 138.988281 L 354.941406 139.125 L 355.210938 139.199219 L 360.117188 138.4375 L 359.464844 136.511719 Z M 342.625 145.167969 L 342.375 146.378906 L 343.25 146.246094 L 343.464844 145.75 Z M 182.613281 238.265625 L 183.167969 238.300781 L 188.441406 239.101562 L 190.109375 239.636719 L 194.679688 240.648438 L 196.933594 241.039062 L 200.316406 241.15625 L 204.042969 242.277344 L 204.316406 247.46875 L 204.140625 247.78125 L 203.246094 248.082031 L 199.578125 249.132812 L 198.4375 250.859375 L 197.039062 254 L 192.53125 255.441406 L 190.207031 255.613281 L 186.433594 254.136719 L 184.6875 253.457031 L 180.074219 252.378906 L 175.53125 253.398438 L 178.523438 249.695312 L 182.59375 247.488281 L 184.144531 243.078125 L 178.945312 241.164062 L 178.4375 241.03125 L 177.832031 239.242188 Z M 174.039062 238.226562 L 172.621094 239.472656 L 172.191406 239.292969 L 172.414062 239.109375 Z M 369.074219 135.4375 L 365.3125 138.179688 L 364.132812 139.164062 L 365.859375 139.128906 L 370.941406 138.675781 L 370.105469 135.714844 Z M 240.460938 208.875 L 243.730469 208.675781 L 244.308594 213.6875 L 243.570312 214.257812 L 239.558594 216.566406 L 239.375 216.535156 L 236.871094 212.636719 L 236.976562 212.097656 Z M 219.734375 219.257812 L 223.773438 220.199219 L 226.074219 224.214844 L 224.46875 227.457031 L 220.652344 230.101562 L 217.148438 229.367188 L 213.871094 225.917969 L 215.402344 221.003906 Z M 383.558594 132.757812 L 379.683594 135.304688 L 375.675781 137.617188 L 374.617188 138.457031 L 376.046875 138.261719 L 380.382812 136.515625 L 383.949219 138.410156 L 386.394531 137.671875 L 386.609375 136.875 L 384.191406 132.925781 Z M 275.441406 195.410156 L 277.441406 194.558594 L 275.867188 196.148438 L 271.925781 198.582031 L 268.222656 201.425781 L 263.914062 203.214844 L 261.371094 203.835938 L 262.667969 201.058594 L 265.75 197.140625 L 270.726562 196.5 Z M 169.582031 251.488281 L 169.164062 251.996094 L 168.515625 252.105469 L 168.125 250.191406 Z M 305.84375 183.277344 L 306.296875 183.242188 L 308.898438 187.085938 L 308.355469 187.625 L 307.988281 187.609375 L 302.398438 186.5625 L 300.53125 186.570312 L 301.125 184.359375 Z M 288.480469 190.226562 L 293.253906 189.238281 L 296.699219 188.785156 L 294.636719 191.632812 L 290.324219 193.421875 L 286.503906 194.671875 Z M 216.390625 231.976562 L 220.308594 232.886719 L 222.816406 236.785156 L 226.042969 239.433594 L 226.910156 239.765625 L 228.832031 244 L 232.925781 246.980469 L 237.015625 249.964844 L 239.410156 253.925781 L 240.9375 258.386719 L 238.628906 261.238281 L 234.675781 262 L 233.433594 261.496094 L 229.984375 259.367188 L 226.261719 256.171875 L 224.519531 255.308594 L 221.410156 253.628906 L 218.441406 250 L 214.839844 247.800781 L 213.894531 247.277344 L 209.285156 244.597656 L 208.035156 239.972656 L 208.914062 237.535156 L 211.988281 233.609375 Z M 363.308594 153.21875 L 366.105469 154.054688 L 364.953125 156.066406 L 360.898438 158.304688 L 356.488281 159.609375 L 359.617188 156.082031 Z M 299.429688 190.679688 L 301.042969 191.621094 L 300.359375 192.292969 L 299.855469 192.308594 Z M 266.015625 206.855469 L 266.304688 211.675781 L 266.285156 216.574219 L 262.277344 218.890625 L 262.324219 219.320312 L 263.863281 221.636719 L 264.988281 223.125 L 265.714844 224.84375 L 261.902344 227.5 L 260.207031 231.230469 L 259.894531 233.28125 L 260.53125 236.386719 L 261.945312 236.832031 L 265.550781 233.816406 L 266.324219 233.042969 L 267.332031 227.648438 L 267.503906 227.015625 L 270.148438 223.269531 L 273.078125 223.796875 L 275.800781 223.800781 L 277.925781 221 L 278.199219 218.703125 L 279.21875 214.910156 L 275.078125 211.957031 L 273.828125 211.132812 L 270.046875 209.515625 Z M 370.597656 156.59375 L 372.292969 155.828125 L 376.613281 158.679688 L 373.628906 161.84375 L 370.039062 164.878906 L 365.605469 166.457031 L 363.523438 171.578125 L 363.371094 171.84375 L 360.214844 175.628906 L 356.417969 178.3125 L 353.8125 182.53125 L 354.046875 183.464844 L 353.40625 182.765625 L 347.863281 180.621094 L 347.03125 180.566406 L 342.90625 182.679688 L 339.804688 179.929688 L 340.695312 178.847656 L 344.292969 175.820312 L 348.214844 173.363281 L 351.113281 169.125 L 355.957031 168.253906 L 360.902344 167.570312 L 363.136719 162.183594 L 363.277344 161.035156 L 366.429688 158.628906 Z M 338.027344 174.226562 L 340.976562 173.90625 L 339.261719 176.367188 L 335.851562 179.71875 L 333.191406 183.746094 L 332.980469 184 L 332.792969 183.980469 L 329.949219 180.273438 L 330.230469 179.234375 L 333.746094 176.070312 Z M 177.867188 267.066406 L 179.152344 267.339844 L 184.367188 269.070312 L 185.027344 269.289062 L 190.71875 270.816406 L 191.503906 270.894531 L 193.03125 274.824219 L 188.328125 275.933594 L 183.363281 276.589844 L 180.128906 277.464844 L 178.726562 277.8125 L 173.324219 277.714844 L 168.976562 279.441406 L 164.71875 281.320312 L 164.050781 281.398438 L 164.355469 280.691406 L 165.878906 275 L 165.910156 274.128906 L 168.976562 270.183594 L 173.347656 268.496094 Z M 206.558594 251.972656 L 212.21875 252.523438 L 213.941406 252.597656 L 214.136719 255.84375 L 209.601562 257.242188 L 207.324219 256.417969 Z M 293.710938 206.539062 L 292.65625 206.714844 L 292.101562 207.472656 L 293.308594 207.84375 Z M 290.300781 211.894531 L 285.753906 213.273438 L 284.738281 217.066406 L 287.835938 216.878906 L 293.199219 217.527344 L 293.664062 217.714844 L 298.628906 219.734375 L 300.789062 220.804688 L 300.945312 218.398438 L 297.992188 214.757812 L 297.007812 214.257812 L 292.707031 212.464844 Z M 308.785156 203.183594 L 306.542969 203 L 305.121094 205.296875 L 308.195312 208.867188 L 311 210.722656 L 311.582031 206.914062 Z M 283.828125 219.195312 L 281.707031 224.160156 L 286.960938 226.472656 L 286.601562 232.023438 L 286.222656 232.597656 L 287.3125 236.957031 L 290.003906 239.144531 L 293.101562 238.957031 L 296.898438 242.109375 L 297.480469 242.84375 L 300.9375 245.125 L 304.035156 244.9375 L 309.199219 244.628906 L 313.324219 242.511719 L 314.632812 242.558594 L 314.78125 245.039062 L 314.828125 247.792969 L 316.484375 247.992188 L 321.652344 247.679688 L 325.03125 247.242188 L 327.550781 248.640625 L 329.332031 250.105469 L 333.632812 252.96875 L 336.570312 255.011719 L 338.867188 255.289062 L 342.660156 256.304688 L 341.875 253.550781 L 341.007812 248.707031 L 342.332031 246.472656 L 344.144531 246.898438 L 347.765625 246.632812 L 351.042969 243.054688 L 351.585938 242.601562 L 350.875 242.761719 L 346.828125 240.003906 L 343.816406 239.792969 L 339.863281 242.199219 L 336.777344 245.804688 L 336.832031 246.203125 L 336.417969 246.015625 L 332.980469 242.652344 L 333.097656 239.738281 L 333.621094 236.941406 L 335.140625 234.023438 L 337.34375 229.445312 L 333.28125 230.796875 L 328.222656 229.367188 L 325.382812 226.375 L 321.128906 228.261719 L 318.371094 232.742188 L 314.789062 231.78125 L 312.503906 231.835938 L 307.382812 232.226562 L 304.78125 232.214844 L 302.28125 232.644531 L 297.46875 231.09375 L 294.238281 227.96875 L 293.550781 228.011719 L 293.621094 226.902344 L 292.570312 223.230469 L 291.398438 223.054688 L 287.050781 221.074219 Z M 222.246094 260.628906 L 225.296875 262.070312 L 225.417969 266.125 L 221.269531 268.199219 L 217.292969 266.695312 L 217.980469 262.496094 Z M 173.148438 295.921875 L 176.589844 295.539062 L 174.269531 297.863281 L 171.09375 298.710938 Z M 160.738281 302.195312 L 164.53125 299.507812 L 168.070312 300.457031 L 166.167969 302.34375 L 162.25 304.8125 L 160.695312 304.714844 Z M 319.898438 216.878906 L 319.144531 218.578125 L 321.304688 219.316406 L 322.53125 216.621094 Z M 258.355469 248.332031 L 257.316406 247.328125 L 257.851562 248.621094 L 258.289062 249.011719 Z M 176.03125 300.917969 L 176.53125 300.917969 L 176.425781 301.601562 L 174.609375 307.371094 L 175.386719 309.058594 L 173.929688 307.761719 L 171.75 303.675781 L 172.097656 303.355469 Z M 261.597656 254.742188 L 261.878906 256.984375 L 264.027344 258.949219 L 263.488281 256.054688 Z M 209.148438 284.222656 L 209.425781 287.269531 L 211.128906 287.660156 L 214.144531 284.546875 Z M 157.804688 315.621094 L 160.96875 315.246094 L 159.230469 318.09375 L 154.625 318.910156 Z M 168.464844 315.574219 L 169.363281 315.742188 L 170.148438 318.496094 L 165.15625 319.105469 L 163.628906 319.050781 L 163.457031 316.160156 Z M 314.554688 235.390625 L 316.769531 235.984375 L 315.726562 237.414062 L 314.992188 237.007812 Z M 174.734375 317.183594 L 175.804688 317.367188 L 175.777344 318.988281 L 172.679688 319.171875 Z M 146.84375 333.667969 L 149.429688 332.59375 L 149.109375 337.589844 L 145.582031 334.816406 Z M 464.117188 161.214844 L 460.074219 163.472656 L 456.167969 165.960938 L 452.199219 168.339844 L 448.226562 170.71875 L 445.847656 172.148438 L 445.167969 174.675781 L 441.3125 177.257812 L 437.152344 179.304688 L 433.019531 179.550781 L 432.195312 179.976562 L 428.113281 182.160156 L 423.941406 184.1875 L 419.816406 186.300781 L 415.753906 188.523438 L 411.671875 190.710938 L 411.300781 192.089844 L 409.886719 196.875 L 405.859375 199.152344 L 401.871094 201.503906 L 398.328125 204.621094 L 397.148438 205.605469 L 399.5 206.652344 L 404.636719 206.289062 L 405.34375 206.21875 L 405.863281 208.414062 L 403.890625 212.402344 L 407.300781 210.90625 L 411.320312 208.613281 L 412.171875 207.621094 L 414.546875 204.945312 L 418.039062 201.738281 L 421.625 198.691406 L 425.378906 195.933594 L 429.167969 193.242188 L 433.175781 190.929688 L 437.132812 188.523438 L 440.980469 185.9375 L 443.257812 184.328125 L 444.398438 182.601562 L 445.664062 182.941406 L 449.136719 181.546875 L 452.078125 179.238281 L 452.570312 178.242188 L 456.703125 176.140625 L 460.644531 173.714844 L 464.222656 170.65625 L 468.125 168.15625 L 466.597656 165.511719 L 464.28125 161.503906 Z M 351.824219 225.894531 L 346.273438 225.539062 L 346 229.792969 L 350.121094 232.757812 L 350.488281 232.835938 L 352.769531 231.230469 L 354.238281 230.074219 L 352.457031 226.066406 Z M 198.40625 311.898438 L 202.082031 312.882812 L 200.140625 314.90625 L 195.980469 316.957031 L 194.378906 317.332031 L 194.761719 314.839844 Z M 105.421875 363.347656 L 105.15625 363.277344 L 103.761719 364.304688 L 106.113281 364.933594 Z M 95.3125 373.996094 L 91.242188 376.203125 L 87.394531 378.792969 L 84.640625 380.691406 L 83.980469 382.140625 L 80.128906 384.71875 L 76.375 387.480469 L 74.074219 392.132812 L 73.941406 392.515625 L 72.203125 393.214844 L 69.625 394.300781 L 69.800781 394.601562 L 72.113281 398.609375 L 74.273438 402.351562 L 77.511719 398.699219 L 81.425781 396.226562 L 85.605469 394.207031 L 90.03125 392.621094 L 92.863281 391.972656 L 94.675781 391.402344 L 98.695312 389.109375 L 102.554688 386.539062 L 103.285156 385.957031 L 106.144531 383.503906 L 106.773438 378.597656 L 104.222656 374.726562 L 101.097656 374.761719 L 96.488281 373.851562 Z M 410.460938 197.867188 L 411.285156 197.445312 L 410.75 198.367188 L 406.796875 200.777344 L 402.550781 202.679688 L 402.28125 202.644531 L 402.445312 202.496094 L 406.425781 200.132812 Z M 205.167969 314.351562 L 208.691406 314.414062 L 208.136719 319.496094 L 207.425781 320.488281 L 204.730469 322.855469 L 200.464844 324.71875 L 199.300781 325.175781 L 194.488281 322.613281 L 197.371094 319.363281 L 201.347656 316.992188 Z M 129.664062 359.449219 L 133.746094 357.261719 L 135.875 356.453125 L 134.855469 359.179688 L 131.054688 361.855469 L 126.617188 363.429688 L 122.214844 365.054688 L 118.386719 367.679688 L 116.203125 367.808594 L 117.789062 366.648438 L 121.824219 364.382812 L 125.753906 361.929688 Z M 235.882812 302.761719 L 240.335938 301.484375 L 236.953125 304.613281 L 234.171875 305.046875 Z M 223.992188 309.9375 L 227.625 308.824219 L 224.816406 311.363281 L 220.875 313.792969 L 216.539062 315.226562 L 219.742188 311.828125 Z M 363.472656 246.070312 L 362.558594 246.953125 L 363.6875 246.441406 L 363.835938 246.21875 Z M 244.035156 316.878906 L 244.097656 320.691406 L 245.832031 319.996094 L 245.929688 319.632812 Z M 129.910156 396.898438 L 129.832031 397.351562 L 130.351562 397.660156 L 131.003906 396.675781 Z M 129.910156 396.898438 "/>
<path fill-rule="evenodd" fill="rgb(100%, 94.901961%, 0%)" fill-opacity="1" d="M 311.941406 147.554688 L 311.238281 148.328125 L 312.84375 149.121094 L 312.371094 147.671875 Z M 172.414062 239.109375 L 172.191406 239.292969 L 172.621094 239.472656 L 174.039062 238.226562 Z M 182.613281 238.265625 L 177.832031 239.242188 L 178.4375 241.03125 L 178.945312 241.164062 L 184.144531 243.078125 L 182.59375 247.488281 L 178.523438 249.695312 L 175.53125 253.398438 L 180.074219 252.378906 L 184.6875 253.457031 L 186.433594 254.136719 L 190.207031 255.613281 L 192.53125 255.441406 L 197.039062 254 L 198.4375 250.859375 L 199.578125 249.132812 L 203.246094 248.082031 L 204.140625 247.78125 L 204.316406 247.46875 L 204.042969 242.277344 L 200.316406 241.15625 L 196.933594 241.039062 L 194.679688 240.648438 L 190.109375 239.636719 L 188.441406 239.101562 L 183.167969 238.300781 Z M 240.460938 208.875 L 236.976562 212.097656 L 236.871094 212.636719 L 239.375 216.535156 L 239.558594 216.566406 L 243.570312 214.257812 L 244.308594 213.6875 L 243.730469 208.675781 Z M 219.734375 219.257812 L 215.402344 221.003906 L 213.871094 225.917969 L 217.148438 229.367188 L 220.652344 230.101562 L 224.46875 227.457031 L 226.074219 224.214844 L 223.773438 220.199219 Z M 168.125 250.191406 L 168.515625 252.105469 L 169.164062 251.996094 L 169.582031 251.488281 Z M 275.441406 195.410156 L 270.726562 196.5 L 265.75 197.140625 L 262.667969 201.058594 L 261.371094 203.835938 L 263.914062 203.214844 L 268.222656 201.425781 L 271.925781 198.582031 L 275.867188 196.148438 L 277.441406 194.558594 Z M 305.84375 183.277344 L 301.125 184.359375 L 300.53125 186.570312 L 302.398438 186.5625 L 307.988281 187.609375 L 308.355469 187.625 L 308.898438 187.085938 L 306.296875 183.242188 Z M 288.480469 190.226562 L 286.503906 194.671875 L 290.324219 193.421875 L 294.636719 191.632812 L 296.699219 188.785156 L 293.253906 189.238281 Z M 363.308594 153.21875 L 359.617188 156.082031 L 356.488281 159.609375 L 360.898438 158.304688 L 364.953125 156.066406 L 366.105469 154.054688 Z M 299.429688 190.679688 L 299.855469 192.308594 L 300.359375 192.292969 L 301.042969 191.621094 Z M 338.027344 174.226562 L 333.746094 176.070312 L 330.230469 179.234375 L 329.949219 180.273438 L 332.792969 183.980469 L 332.980469 184 L 333.191406 183.746094 L 335.851562 179.71875 L 339.261719 176.367188 L 340.976562 173.90625 Z M 177.867188 267.066406 L 173.347656 268.496094 L 168.976562 270.183594 L 165.910156 274.128906 L 165.878906 275 L 164.355469 280.691406 L 164.050781 281.398438 L 164.71875 281.320312 L 168.976562 279.441406 L 173.324219 277.714844 L 178.726562 277.8125 L 180.128906 277.464844 L 183.363281 276.589844 L 188.328125 275.933594 L 193.03125 274.824219 L 191.503906 270.894531 L 190.71875 270.816406 L 185.027344 269.289062 L 184.367188 269.070312 L 179.152344 267.339844 Z M 173.148438 295.921875 L 171.09375 298.710938 L 174.269531 297.863281 L 176.589844 295.539062 Z M 164.53125 299.507812 L 160.738281 302.195312 L 160.695312 304.714844 L 162.25 304.8125 L 166.167969 302.34375 L 168.070312 300.457031 Z M 157.804688 315.621094 L 154.625 318.910156 L 159.230469 318.09375 L 160.96875 315.246094 Z M 168.464844 315.574219 L 163.457031 316.160156 L 163.628906 319.050781 L 165.15625 319.105469 L 170.148438 318.496094 L 169.363281 315.742188 Z M 174.734375 317.183594 L 172.679688 319.171875 L 175.777344 318.988281 L 175.804688 317.367188 Z M 146.84375 333.667969 L 145.582031 334.816406 L 149.109375 337.589844 L 149.429688 332.59375 Z M 410.460938 197.867188 L 406.425781 200.132812 L 402.445312 202.496094 L 402.28125 202.644531 L 402.550781 202.679688 L 406.796875 200.777344 L 410.75 198.367188 L 411.285156 197.445312 Z M 205.167969 314.351562 L 201.347656 316.992188 L 197.371094 319.363281 L 194.488281 322.613281 L 199.300781 325.175781 L 200.464844 324.71875 L 204.730469 322.855469 L 207.425781 320.488281 L 208.136719 319.496094 L 208.691406 314.414062 Z M 129.664062 359.449219 L 125.753906 361.929688 L 121.824219 364.382812 L 117.789062 366.648438 L 116.203125 367.808594 L 118.386719 367.679688 L 122.214844 365.054688 L 126.617188 363.429688 L 131.054688 361.855469 L 134.855469 359.179688 L 135.875 356.453125 L 133.746094 357.261719 Z M 235.882812 302.761719 L 234.171875 305.046875 L 236.953125 304.613281 L 240.335938 301.484375 Z M 223.992188 309.9375 L 219.742188 311.828125 L 216.539062 315.226562 L 220.875 313.792969 L 224.816406 311.363281 L 227.625 308.824219 Z M 223.992188 309.9375 "/>
</svg>
